<?xml version="1.0" standalone="no"?>
<!DOCTYPE svg PUBLIC "-//W3C//DTD SVG 20010904//EN"
 "http://www.w3.org/TR/2001/REC-SVG-20010904/DTD/svg10.dtd">
<svg version="1.0" xmlns="http://www.w3.org/2000/svg"
 width="955.000000pt" height="406.000000pt" viewBox="0 0 955.000000 406.000000"
 preserveAspectRatio="xMidYMid meet">

<g transform="translate(0.000000,406.000000) scale(0.100000,-0.100000)"
fill="#000000" stroke="none">
<path d="M90 3970 c0 -7 1563 -10 4670 -10 3107 0 4670 3 4670 10 0 7 -1563
10 -4670 10 -3107 0 -4670 -3 -4670 -10z"/>
<path d="M131 3863 c-13 -32 -30 -68 -38 -80 -12 -21 -12 -23 5 -23 13 0 18 7
18 23 -1 18 4 22 29 22 25 0 30 -4 29 -22 0 -19 5 -23 31 -23 l31 0 -38 80
c-21 44 -40 80 -41 80 -2 0 -14 -26 -26 -57z m29 -35 c0 -5 -7 -8 -15 -8 -15
0 -20 21 -8 33 7 7 23 -11 23 -25z"/>
<path d="M255 3840 c0 -76 1 -80 23 -80 21 0 22 4 22 80 0 76 -1 80 -22 80
-22 0 -23 -4 -23 -80z"/>
<path d="M670 3905 c0 -8 7 -15 15 -15 8 0 15 7 15 15 0 8 -7 15 -15 15 -8 0
-15 -7 -15 -15z"/>
<path d="M805 3840 c0 -79 0 -80 25 -80 24 0 25 3 22 45 -3 37 -1 45 13 45 14
0 16 -8 13 -45 -3 -40 -1 -45 17 -45 19 0 20 5 15 53 -5 49 -7 52 -32 52 -24
-1 -28 3 -28 27 0 22 -5 28 -22 28 -22 0 -23 -4 -23 -80z"/>
<path d="M1220 3905 c-14 -8 -19 -14 -12 -15 8 0 12 -19 12 -59 0 -38 -4 -61
-12 -64 -7 -3 7 -5 32 -5 25 0 39 2 33 5 -9 3 -13 29 -13 79 0 41 -3 74 -7 74
-5 -1 -19 -7 -33 -15z"/>
<path d="M1375 3840 c0 -74 2 -80 20 -80 18 0 20 5 18 38 l-4 37 33 -38 c18
-20 42 -37 52 -37 17 0 18 2 5 13 -8 6 -23 22 -33 34 -17 21 -17 22 3 42 35
35 1 71 -67 71 l-27 0 0 -80z m71 56 c15 -12 17 -18 8 -33 -6 -10 -19 -19 -28
-21 -12 -3 -16 4 -16 32 0 39 6 43 36 22z"/>
<path d="M1819 3913 c-1 -5 0 -18 1 -30 1 -17 -3 -21 -14 -17 -38 15 -78 -45
-56 -86 8 -15 20 -19 50 -18 l40 1 0 79 c0 45 -4 78 -10 78 -5 0 -10 -3 -11
-7z m-4 -98 c0 -30 -4 -41 -17 -43 -24 -5 -42 42 -27 69 18 35 44 19 44 -26z"/>
<path d="M2170 3910 c0 -5 7 -10 16 -10 8 0 12 5 9 10 -3 6 -10 10 -16 10 -5
0 -9 -4 -9 -10z"/>
<path d="M2509 3913 c-1 -5 0 -18 1 -30 1 -17 -3 -21 -15 -17 -39 15 -75 -67
-41 -95 14 -12 74 -11 75 2 5 51 -1 147 -9 147 -5 0 -10 -3 -11 -7z m-1 -96
c2 -27 -1 -39 -13 -44 -20 -7 -35 12 -35 48 0 56 43 52 48 -4z"/>
<path d="M2653 3910 c-45 -18 -56 -80 -22 -124 25 -32 88 -37 110 -8 11 14 11
15 -1 5 -19 -18 -65 -16 -84 3 -22 22 -21 87 2 107 25 22 48 21 72 -3 l20 -20
0 23 c0 18 -6 22 -38 24 -20 1 -47 -2 -59 -7z"/>
<path d="M3818 3908 c16 -16 16 -135 0 -141 -7 -3 3 -5 22 -5 19 0 29 2 23 5
-17 6 -17 125 -1 141 9 9 4 12 -22 12 -26 0 -31 -3 -22 -12z"/>
<path d="M4079 3913 c-1 -5 0 -18 1 -30 1 -17 -3 -21 -14 -17 -38 15 -78 -45
-56 -86 8 -15 20 -19 50 -18 l40 1 0 79 c0 45 -4 78 -10 78 -5 0 -10 -3 -11
-7z m-4 -98 c0 -30 -4 -41 -17 -43 -24 -5 -42 42 -27 69 18 35 44 19 44 -26z"/>
<path d="M4519 3913 c-1 -5 0 -18 1 -30 1 -17 -3 -21 -15 -17 -39 15 -75 -67
-41 -95 14 -12 74 -11 75 2 5 51 -1 147 -9 147 -5 0 -10 -3 -11 -7z m-1 -96
c2 -27 -1 -39 -13 -44 -20 -7 -35 12 -35 48 0 56 43 52 48 -4z"/>
<path d="M4810 3918 c-1 -2 -2 -38 -3 -81 -2 -63 1 -77 13 -77 12 0 14 14 12
80 -2 44 -8 80 -13 80 -5 0 -9 -1 -9 -2z"/>
<path d="M5190 3910 c0 -5 5 -10 10 -10 6 0 10 5 10 10 0 6 -4 10 -10 10 -5 0
-10 -4 -10 -10z"/>
<path d="M5318 3914 c-5 -4 -8 -40 -8 -81 0 -54 3 -73 13 -73 10 0 13 13 13
43 -1 36 2 42 19 42 17 0 20 -7 20 -43 0 -31 4 -42 15 -42 12 0 15 9 12 43 -5
52 -19 70 -48 63 -20 -5 -23 -2 -26 25 -2 17 -6 27 -10 23z"/>
<path d="M745 3888 c-27 -31 -21 -121 9 -126 10 -2 23 1 29 7 8 8 8 11 -1 11
-7 0 -12 16 -12 40 0 25 5 40 13 40 8 0 9 2 1 8 -7 4 -13 15 -15 25 -4 17 -6
17 -24 -5z"/>
<path d="M4666 3843 c-15 -38 -33 -71 -39 -75 -7 -5 -3 -8 11 -8 13 0 21 4 18
9 -13 20 7 41 39 41 32 0 52 -21 39 -41 -3 -5 5 -9 18 -9 l24 0 -35 75 c-19
41 -38 75 -41 75 -4 0 -19 -30 -34 -67z m54 -15 c0 -5 -11 -8 -25 -8 -29 0
-29 0 -13 35 l12 26 13 -23 c7 -13 12 -26 13 -30z"/>
<path d="M3485 3867 c-4 -13 -5 -41 -3 -63 2 -30 8 -40 23 -42 16 -3 18 -1 8
9 -15 15 -18 86 -4 91 5 2 3 9 -5 16 -11 10 -15 8 -19 -11z"/>
<path d="M5254 3880 c-5 -5 -7 -34 -6 -64 3 -50 6 -56 25 -55 12 0 16 3 10 6
-15 5 -18 90 -4 95 5 2 3 8 -4 15 -7 6 -16 8 -21 3z"/>
<path d="M329 3854 c-10 -12 -10 -20 -1 -35 7 -11 9 -25 5 -32 -4 -7 -8 -24
-9 -40 -2 -31 27 -44 71 -33 52 13 36 66 -20 66 -18 0 -20 5 -17 40 2 22 8 40
13 40 9 0 12 -13 10 -42 -2 -17 28 -27 30 -10 10 62 10 62 -30 62 -23 0 -44
-6 -52 -16z m72 -119 c0 -5 -7 -12 -16 -13 -23 -5 -47 6 -40 19 8 13 56 8 56
-6z"/>
<path d="M458 3859 c-21 -12 -24 -69 -6 -87 7 -7 24 -12 38 -12 33 0 50 17 50
51 0 48 -41 72 -82 48z m48 -23 c8 -34 1 -61 -16 -61 -16 0 -26 45 -16 71 8
22 25 17 32 -10z"/>
<path d="M565 3815 c0 -48 2 -55 20 -55 17 0 20 7 20 42 0 39 2 43 24 40 16
-3 22 1 19 10 -3 7 -22 14 -44 15 l-39 3 0 -55z"/>
<path d="M665 3815 c0 -48 2 -55 20 -55 18 0 20 5 17 55 -3 43 -7 55 -20 55
-14 0 -17 -10 -17 -55z"/>
<path d="M935 3814 c0 -51 1 -54 25 -54 24 0 25 3 22 45 -3 37 -1 45 13 45 14
0 16 -8 13 -45 -3 -40 -1 -45 17 -45 18 0 20 5 17 45 -3 37 -1 45 13 45 14 0
16 -8 13 -45 -3 -42 -2 -45 22 -45 24 0 25 3 22 43 -2 23 -8 46 -13 52 -6 5
-44 11 -87 12 l-77 2 0 -55z"/>
<path d="M1543 3863 c-7 -2 -13 -12 -13 -21 1 -15 2 -15 14 1 21 28 34 20 34
-23 1 -42 -12 -60 -30 -42 -8 8 -7 16 2 27 11 13 10 15 -3 9 -17 -6 -30 -31
-22 -44 3 -5 22 -9 43 -8 l37 0 -4 47 c-4 55 -20 70 -58 54z"/>
<path d="M1642 3860 c-4 -3 -7 -26 -7 -53 0 -35 4 -47 15 -47 12 0 14 10 12
45 -4 41 -2 45 18 45 20 0 22 -4 18 -45 -2 -35 0 -45 12 -45 12 0 14 11 12 50
-2 27 -7 51 -10 51 -22 5 -64 4 -70 -1z"/>
<path d="M1877 3852 c-33 -37 -11 -92 37 -92 31 0 46 19 46 57 0 49 -51 71
-83 35z m59 -16 c8 -35 1 -60 -18 -64 -22 -4 -41 33 -34 64 8 32 44 32 52 0z"/>
<path d="M1995 3862 c-5 -4 -10 -28 -10 -55 0 -35 4 -47 15 -47 12 0 15 10 12
43 -5 62 -6 67 -17 59z"/>
<path d="M2025 3860 c-3 -5 1 -10 10 -10 14 0 16 -8 13 -45 -2 -35 0 -45 12
-45 11 0 15 11 15 42 0 36 3 43 20 43 17 0 20 -7 20 -43 0 -32 4 -42 16 -42
13 0 15 8 9 45 -9 57 -21 71 -48 56 -14 -7 -23 -8 -27 -1 -8 13 -32 13 -40 0z"/>
<path d="M2235 3859 c-4 -6 -4 -13 -1 -16 3 -4 6 -1 6 5 0 7 11 12 25 12 l26
0 -31 -44 c-16 -25 -30 -47 -30 -50 0 -3 20 -6 45 -6 36 0 45 3 44 18 0 10 -3
12 -6 5 -4 -13 -53 -19 -53 -7 0 3 11 22 25 42 14 20 25 40 25 44 0 12 -68 9
-75 -3z"/>
<path d="M2347 3852 c-20 -22 -22 -63 -5 -80 17 -17 53 -15 69 5 13 15 12 15
-6 6 -23 -13 -55 0 -55 22 0 10 10 15 29 15 37 0 46 13 25 34 -20 21 -37 20
-57 -2z m41 -10 c2 -7 -6 -12 -17 -12 -21 0 -27 11 -14 24 9 9 26 2 31 -12z"/>
<path d="M2786 3854 c-19 -18 -21 -65 -4 -82 7 -7 22 -12 34 -12 49 0 72 61
36 93 -23 21 -46 22 -66 1z m54 -15 c16 -28 8 -63 -14 -67 -22 -5 -36 14 -36
49 0 43 31 55 50 18z"/>
<path d="M2905 3862 c-5 -4 -10 -28 -10 -55 0 -35 4 -47 15 -47 12 0 15 10 12
43 -5 62 -6 67 -17 59z"/>
<path d="M2935 3860 c-3 -5 1 -10 10 -10 14 0 16 -8 13 -45 -2 -35 0 -45 12
-45 11 0 15 11 15 42 0 36 3 43 20 43 17 0 20 -7 20 -43 0 -32 4 -42 16 -42
13 0 15 8 9 45 -9 57 -21 71 -48 56 -14 -7 -23 -8 -27 -1 -8 13 -32 13 -40 0z"/>
<path d="M3082 3860 c-4 -3 -7 -38 -7 -78 0 -60 3 -72 16 -72 12 0 15 7 11 25
-4 21 -1 25 20 25 13 0 29 5 36 12 16 16 15 73 0 86 -13 10 -64 12 -76 2z m63
-50 c0 -29 -4 -36 -22 -38 -20 -3 -23 1 -23 31 0 38 7 49 30 45 10 -2 15 -15
15 -38z"/>
<path d="M3201 3857 c-6 -8 -8 -17 -4 -20 3 -4 11 1 18 10 17 23 32 10 33 -31
1 -38 -13 -55 -30 -38 -8 8 -7 16 3 28 13 16 12 16 -9 5 -37 -20 -24 -46 23
-48 l40 -2 -3 42 c-3 23 -9 48 -14 55 -14 16 -43 15 -57 -1z"/>
<path d="M3305 3862 c-6 -4 -10 -28 -10 -55 0 -35 4 -47 15 -47 12 0 15 9 12
41 -4 34 -1 41 17 46 11 3 21 9 21 14 0 13 -17 11 -26 -2 -4 -8 -9 -8 -13 -1
-4 6 -11 8 -16 4z"/>
<path d="M3393 3863 c-7 -2 -13 -12 -13 -21 1 -15 2 -15 14 1 21 28 34 20 34
-23 1 -42 -12 -60 -30 -42 -8 8 -7 16 2 27 11 13 10 15 -3 9 -17 -6 -30 -31
-22 -44 3 -5 22 -9 43 -8 l37 0 -4 47 c-4 55 -20 70 -58 54z"/>
<path d="M3557 3852 c-33 -37 -11 -92 37 -92 31 0 46 19 46 57 0 49 -51 71
-83 35z m59 -16 c8 -35 1 -60 -18 -64 -22 -4 -41 33 -34 64 8 32 44 32 52 0z"/>
<path d="M3673 3861 c-4 -3 -8 -27 -8 -54 0 -35 4 -47 15 -47 12 0 14 10 12
45 -4 41 -2 45 19 45 12 0 19 3 15 7 -8 9 -43 11 -53 4z"/>
<path d="M3902 3860 c-4 -3 -7 -26 -7 -53 0 -35 4 -47 15 -47 12 0 14 10 12
45 -4 41 -2 45 18 45 20 0 22 -4 18 -45 -2 -35 0 -45 12 -45 12 0 14 11 12 50
-2 27 -7 51 -10 51 -22 5 -64 4 -70 -1z"/>
<path d="M4130 3818 l5 -53 43 -2 c36 -1 43 1 38 13 -3 9 -6 33 -6 55 0 24 -5
39 -12 39 -9 0 -13 -16 -13 -47 0 -36 -4 -48 -15 -48 -11 0 -16 13 -18 48 -2
29 -8 47 -15 47 -9 0 -11 -15 -7 -52z"/>
<path d="M4298 3852 c9 -11 21 -17 25 -15 11 7 -13 33 -29 33 -11 0 -10 -5 4
-18z"/>
<path d="M4394 3854 c22 -21 20 -24 -10 -24 -21 0 -25 4 -20 18 5 14 4 14 -9
-2 -18 -23 -19 -40 -5 -67 13 -23 53 -25 71 -2 13 15 12 15 -8 5 -17 -10 -25
-9 -37 4 -25 24 -19 34 19 34 22 0 35 5 35 13 0 17 -20 37 -38 37 -10 0 -10
-3 2 -16z"/>
<path d="M4882 3858 c-15 -15 -16 -45 -2 -53 8 -5 7 -11 -1 -21 -13 -15 -8
-18 49 -28 18 -3 32 -1 32 4 0 6 -10 10 -22 10 -34 0 -43 11 -46 53 -3 33 0
38 15 35 12 -2 18 -12 18 -31 -1 -34 16 -30 26 5 6 21 3 27 -15 32 -31 8 -41
7 -54 -6z"/>
<path d="M4996 3854 c-19 -18 -21 -65 -4 -82 7 -7 22 -12 34 -12 49 0 72 61
36 93 -23 21 -46 22 -66 1z m54 -15 c16 -28 8 -63 -14 -67 -22 -5 -36 14 -36
49 0 43 31 55 50 18z"/>
<path d="M5120 3861 c-22 -5 -25 -11 -25 -54 0 -40 3 -47 20 -47 18 0 20 5 17
45 -4 41 -2 45 18 45 11 0 18 5 15 10 -7 11 -7 11 -45 1z"/>
<path d="M5195 3862 c-5 -4 -10 -28 -10 -55 0 -35 4 -47 15 -47 12 0 15 10 12
43 -5 62 -6 67 -17 59z"/>
<path d="M5433 3863 c-5 -2 -6 -25 -5 -53 5 -62 27 -68 27 -8 0 36 3 43 20 43
17 0 20 -7 20 -43 0 -31 4 -42 15 -42 12 0 14 10 12 45 -4 41 -2 45 18 45 20
0 22 -4 18 -45 -2 -35 0 -45 12 -45 12 0 14 10 12 45 -5 52 -22 71 -50 56 -11
-6 -23 -7 -27 -3 -6 7 -56 10 -72 5z"/>
<path d="M2169 3851 c9 -6 12 -22 9 -50 -3 -32 0 -41 12 -41 12 0 14 10 12 50
-3 44 -7 50 -25 50 -16 0 -18 -3 -8 -9z"/>
<path d="M4252 3848 c-7 -7 -12 -24 -12 -38 0 -32 17 -50 46 -50 34 0 39 18 7
22 -25 3 -28 7 -28 41 0 20 0 37 0 37 -1 0 -6 -5 -13 -12z"/>
<path d="M3743 3813 c9 -2 25 -2 35 0 9 3 1 5 -18 5 -19 0 -27 -2 -17 -5z"/>
<path d="M4865 3741 c-18 -31 45 -43 81 -16 17 13 16 13 -14 2 -29 -10 -35
-10 -47 6 -8 12 -16 14 -20 8z"/>
<path d="M2422 3653 c1286 -2 3390 -2 4675 0 1286 1 234 2 -2337 2 -2571 0
-3623 -1 -2338 -2z"/>
<path d="M6275 3548 c-26 -15 -35 -28 -35 -54 0 -21 28 -54 46 -54 5 0 1 5 -8
11 -12 6 -18 22 -18 44 0 27 6 37 28 49 15 8 23 15 17 15 -5 0 -19 -5 -30 -11z"/>
<path d="M1593 3524 c-15 -23 -15 -29 -2 -52 8 -14 21 -28 29 -30 12 -4 11 -1
-2 15 -22 24 -23 57 -2 77 8 9 11 16 5 16 -6 0 -18 -12 -28 -26z"/>
<path d="M1681 3534 c0 -11 3 -14 6 -6 3 7 2 16 -1 19 -3 4 -6 -2 -5 -13z"/>
<path d="M1728 3495 c-2 -33 1 -55 7 -55 6 0 9 20 7 48 l-3 47 25 -50 c26 -50
26 -30 0 32 -20 48 -32 41 -36 -22z"/>
<path d="M1829 3548 c0 -2 -1 -27 -2 -56 -2 -40 1 -52 13 -52 12 0 14 11 12
55 -2 30 -8 55 -13 55 -5 0 -9 -1 -10 -2z"/>
<path d="M1899 3504 c2 -32 -1 -49 -10 -55 -10 -6 -4 -8 16 -8 17 0 24 3 18 6
-23 9 -15 43 10 43 12 0 28 4 35 9 17 11 12 43 -8 49 -13 4 -13 3 -2 -11 18
-21 7 -37 -25 -37 -22 0 -25 4 -21 25 3 15 1 25 -6 25 -7 0 -10 -17 -7 -46z"/>
<path d="M6332 3531 c7 -9 14 -18 15 -20 2 -2 3 5 3 16 0 11 -7 20 -15 20 -12
0 -12 -3 -3 -16z"/>
<path d="M6391 3533 c8 -10 23 -35 32 -57 26 -57 30 -38 5 22 -12 29 -28 52
-37 52 -12 0 -12 -2 0 -17z"/>
<path d="M6488 3504 c3 -33 1 -49 -9 -55 -10 -6 -5 -9 16 -9 21 0 26 3 16 9
-9 6 -12 23 -10 55 3 30 0 46 -7 46 -8 0 -10 -15 -6 -46z"/>
<path d="M6559 3504 c2 -32 -1 -49 -10 -55 -10 -6 -4 -8 16 -8 17 0 24 3 18 6
-23 9 -15 43 10 43 12 0 28 4 35 9 17 11 12 43 -8 49 -13 4 -13 3 -2 -11 18
-21 7 -37 -25 -37 -22 0 -25 4 -21 25 3 15 1 25 -6 25 -7 0 -10 -17 -7 -46z"/>
<path d="M1496 3481 c-33 -64 -75 -113 -92 -107 -8 3 -14 -1 -14 -9 0 -23 27
-18 48 10 21 27 82 36 82 13 0 -26 17 -41 35 -31 15 9 16 11 1 16 -13 5 -16
22 -16 82 0 42 -4 75 -10 75 -5 0 -21 -22 -34 -49z m24 -31 c0 -36 -2 -40 -25
-40 -14 0 -25 2 -25 4 0 8 42 76 46 76 2 0 4 -18 4 -40z"/>
<path d="M2059 3509 c-33 -63 -32 -136 3 -180 l19 -24 -15 32 c-20 41 -20 125
-1 163 9 17 13 30 11 30 -3 0 -10 -10 -17 -21z"/>
<path d="M2226 3519 c12 -6 26 -21 31 -32 10 -21 10 -21 15 4 3 18 0 25 -11
25 -9 1 -25 4 -36 8 -17 6 -17 5 1 -5z"/>
<path d="M2334 3505 c-34 -52 -27 -154 13 -187 13 -10 13 -7 -2 15 -24 38 -25
135 -1 171 9 14 14 26 11 26 -2 0 -12 -11 -21 -25z"/>
<path d="M2855 3505 c8 -16 15 -55 15 -85 0 -30 -7 -68 -15 -85 l-15 -30 20
23 c38 46 38 138 0 184 l-20 23 15 -30z"/>
<path d="M2945 3505 c8 -16 15 -55 15 -85 0 -30 -7 -68 -15 -85 l-15 -30 20
23 c38 46 38 138 0 184 l-20 23 15 -30z"/>
<path d="M6176 3521 c-5 -8 -8 -36 -7 -63 2 -45 1 -48 -23 -48 l-25 0 20 38
c11 20 14 29 7 18 -66 -94 -69 -97 -88 -91 -24 8 -27 -13 -3 -22 11 -4 23 3
37 20 27 34 86 39 86 8 0 -23 15 -35 31 -25 7 4 8 9 1 13 -5 3 -14 42 -19 86
-5 55 -11 75 -17 66z"/>
<path d="M6714 3505 c-34 -52 -27 -154 13 -187 13 -10 13 -7 -2 15 -24 38 -25
135 -1 171 9 14 14 26 11 26 -2 0 -12 -11 -21 -25z"/>
<path d="M6975 3507 c24 -38 29 -107 11 -151 -20 -49 -14 -59 8 -12 22 47 20
114 -4 154 -11 17 -22 32 -25 32 -3 0 1 -10 10 -23z"/>
<path d="M8516 3519 c12 -6 26 -21 31 -32 10 -21 10 -21 15 4 3 18 0 25 -11
25 -9 1 -25 4 -36 8 -17 6 -17 5 1 -5z"/>
<path d="M509 3499 c-6 -12 -12 -48 -12 -80 -2 -57 -1 -59 23 -59 24 0 25 3
21 46 -2 32 1 49 10 55 10 6 11 9 2 9 -7 0 -13 10 -13 22 0 21 1 21 13 3 10
-12 16 -14 21 -7 11 18 -2 32 -29 32 -14 0 -29 -9 -36 -21z"/>
<path d="M1027 3514 c-9 -10 2 -24 19 -24 8 0 14 7 14 15 0 15 -21 21 -33 9z"/>
<path d="M2152 3495 c-54 -45 -49 -123 8 -138 19 -5 19 -3 -5 19 -16 15 -25
31 -21 40 3 9 6 22 6 31 0 8 13 28 29 44 36 36 24 38 -17 4z"/>
<path d="M2397 3512 c7 -4 17 -39 22 -76 5 -37 12 -70 14 -73 3 -2 14 8 24 24
25 36 39 65 17 36 -9 -13 -20 -23 -24 -23 -14 0 -21 103 -7 112 7 4 -2 8 -23
8 -21 0 -30 -4 -23 -8z"/>
<path d="M2514 3499 c0 -16 2 -18 11 -6 5 7 17 16 25 20 9 3 5 6 -10 6 -20 1
-26 -4 -26 -20z"/>
<path d="M2688 3511 c11 -6 10 -20 -3 -72 -9 -35 -22 -67 -28 -71 -7 -4 18 -8
54 -8 61 0 67 2 77 25 17 37 14 45 -4 13 -12 -23 -21 -28 -55 -28 -38 0 -39 1
-33 28 4 15 9 30 11 35 7 12 41 8 46 -5 3 -7 6 -3 6 8 1 18 -3 20 -26 16 -22
-4 -25 -2 -20 12 4 10 7 24 7 32 0 10 12 14 39 14 33 0 40 -4 44 -22 4 -20 4
-19 6 5 1 27 1 27 -66 27 -40 0 -63 -4 -55 -9z"/>
<path d="M5047 3440 c-31 -69 -33 -80 -18 -80 12 0 17 7 17 23 -1 19 4 22 34
22 30 0 35 -3 34 -22 0 -17 5 -23 22 -23 22 0 22 1 -13 78 -19 42 -36 78 -38
79 -1 2 -18 -33 -38 -77z m48 3 c5 -20 3 -23 -18 -23 -24 0 -25 2 -14 30 12
31 20 29 32 -7z"/>
<path d="M5188 3440 c-2 -66 0 -80 12 -80 12 0 14 14 12 80 -2 44 -7 80 -12
80 -5 0 -10 -36 -12 -80z"/>
<path d="M5570 3510 c0 -5 5 -10 10 -10 6 0 10 5 10 10 0 6 -4 10 -10 10 -5 0
-10 -4 -10 -10z"/>
<path d="M5700 3518 c-1 -2 -2 -38 -3 -81 -2 -63 1 -77 13 -77 12 0 14 10 12
45 -4 41 -2 45 18 45 20 0 22 -4 18 -45 -2 -35 0 -45 12 -45 13 0 15 10 10 53
-5 49 -6 52 -32 50 -25 -2 -28 2 -28 28 0 16 -4 29 -10 29 -5 0 -10 -1 -10 -2z"/>
<path d="M6814 3502 c-28 -22 -44 -54 -44 -86 0 -25 23 -56 41 -56 6 0 3 7 -5
16 -9 8 -16 25 -16 36 0 32 29 84 53 96 14 7 16 11 7 11 -8 0 -25 -7 -36 -17z"/>
<path d="M6900 3506 c6 -6 10 -19 10 -30 0 -17 2 -18 10 -6 16 25 11 46 -10
46 -13 0 -16 -4 -10 -10z"/>
<path d="M7278 3440 c-3 -68 -1 -80 13 -80 12 0 15 7 12 28 l-4 27 25 -27 c14
-16 32 -28 40 -28 9 0 4 11 -16 32 l-30 32 27 23 c14 13 20 23 13 23 -7 0 -19
-9 -26 -20 -20 -32 -32 -23 -32 25 0 78 -18 49 -22 -35z"/>
<path d="M8230 3518 c-1 -2 -2 -38 -3 -81 -2 -63 1 -77 13 -77 11 0 15 11 15
42 0 34 4 43 19 46 16 3 18 -2 15 -42 -3 -37 -1 -46 12 -46 14 0 16 8 12 48
-7 58 -17 71 -43 54 -19 -11 -20 -10 -20 23 0 19 -4 35 -10 35 -5 0 -10 -1
-10 -2z"/>
<path d="M8442 3495 c-54 -45 -49 -123 8 -138 19 -5 19 -3 -5 19 -16 15 -25
31 -21 40 3 9 6 22 6 31 0 8 13 28 29 44 36 36 24 38 -17 4z"/>
<path d="M8910 3510 c0 -5 5 -10 10 -10 6 0 10 5 10 10 0 6 -4 10 -10 10 -5 0
-10 -4 -10 -10z"/>
<path d="M960 3489 c-10 -15 -14 -43 -12 -76 3 -49 5 -53 28 -53 13 0 24 5 24
10 0 6 -4 10 -10 10 -5 0 -10 18 -10 40 0 25 5 40 13 40 8 0 9 2 1 8 -7 4 -13
16 -15 26 -4 18 -5 18 -19 -5z"/>
<path d="M249 3498 c0 -2 -1 -33 -2 -71 -1 -48 2 -67 11 -67 8 0 12 21 12 70
0 40 -4 70 -10 70 -5 0 -10 -1 -11 -2z"/>
<path d="M5633 3479 c-5 -5 -6 -32 -3 -61 4 -43 9 -53 25 -55 11 -2 14 0 8 3
-15 6 -18 91 -4 96 5 2 3 8 -4 15 -7 7 -16 8 -22 2z"/>
<path d="M7113 3479 c-5 -5 -6 -32 -3 -61 4 -43 9 -53 25 -55 11 -2 14 0 8 3
-15 6 -18 91 -4 96 5 2 3 8 -4 15 -7 7 -16 8 -22 2z"/>
<path d="M9325 3467 c-4 -13 -5 -41 -3 -63 2 -30 8 -40 23 -42 16 -3 18 -1 8
9 -15 15 -18 86 -4 91 5 2 3 9 -5 16 -11 10 -15 8 -19 -11z"/>
<path d="M4830 3421 c0 -34 2 -61 4 -61 9 0 96 53 96 58 0 4 -23 20 -50 35
l-50 28 0 -60z m53 20 c35 -18 34 -27 -3 -46 -40 -21 -40 -20 -40 26 0 22 3
39 8 37 4 -2 19 -10 35 -17z"/>
<path d="M6331 3457 c-13 -21 -12 -21 5 -5 10 10 16 20 13 22 -3 3 -11 -5 -18
-17z"/>
<path d="M580 3418 l5 -53 50 -3 50 -3 -3 56 c-3 49 -6 55 -25 55 -19 0 -22
-6 -22 -42 0 -60 -19 -64 -23 -5 -2 37 -7 47 -20 47 -15 0 -17 -7 -12 -52z"/>
<path d="M705 3415 c0 -52 1 -55 25 -55 24 0 25 3 22 45 -3 37 -1 45 13 45 14
0 16 -8 13 -45 -3 -40 -1 -45 17 -45 19 0 20 5 15 53 l-5 52 -50 2 -50 3 0
-55z"/>
<path d="M844 3444 c-16 -24 -16 -29 -3 -53 16 -29 55 -40 73 -20 8 9 8 10 -2
5 -21 -12 -42 14 -42 50 0 24 5 34 15 34 8 0 15 -7 15 -15 0 -8 5 -15 11 -15
23 0 3 35 -23 38 -20 2 -31 -4 -44 -24z"/>
<path d="M1025 3415 c0 -48 2 -55 20 -55 18 0 20 5 17 55 -3 43 -7 55 -20 55
-14 0 -17 -10 -17 -55z"/>
<path d="M1097 3452 c-34 -37 -14 -92 33 -92 20 0 35 8 46 24 34 53 -37 115
-79 68z m53 -37 c0 -32 -4 -45 -14 -45 -17 0 -27 37 -19 68 10 41 33 26 33
-23z"/>
<path d="M1205 3414 c0 -47 2 -54 20 -54 18 0 20 5 17 45 -3 37 -1 45 13 45
14 0 16 -8 13 -45 -3 -41 -1 -45 19 -45 20 0 23 5 23 44 0 52 -12 64 -65 64
l-40 1 0 -55z"/>
<path d="M5262 3458 c-15 -15 -16 -45 -2 -53 8 -5 7 -11 -1 -21 -13 -15 -8
-18 49 -28 18 -3 32 -1 32 4 0 6 -10 10 -22 10 -34 0 -43 11 -46 53 -3 33 0
38 15 35 12 -2 18 -12 18 -31 -1 -34 16 -30 26 5 6 21 3 27 -15 32 -31 8 -41
7 -54 -6z"/>
<path d="M5377 3452 c-33 -37 -11 -92 37 -92 31 0 46 19 46 57 0 49 -51 71
-83 35z m59 -16 c8 -35 1 -60 -18 -64 -22 -4 -41 33 -34 64 8 32 44 32 52 0z"/>
<path d="M5493 3461 c-4 -3 -8 -27 -8 -54 0 -35 4 -47 15 -47 12 0 14 10 12
45 -4 41 -2 45 19 45 12 0 19 3 15 7 -8 9 -43 11 -53 4z"/>
<path d="M5575 3462 c-5 -4 -10 -28 -10 -55 0 -35 4 -47 15 -47 12 0 15 10 12
43 -5 62 -6 67 -17 59z"/>
<path d="M5840 3461 c-22 -5 -25 -11 -25 -54 0 -35 4 -47 15 -47 12 0 14 10
12 45 -4 41 -2 45 18 45 20 0 22 -4 18 -45 -2 -35 0 -45 12 -45 12 0 14 10 12
44 -3 33 0 45 12 49 21 8 29 -12 24 -58 -3 -27 0 -35 12 -35 12 0 14 10 11 51
-3 54 -17 67 -50 50 -13 -7 -22 -8 -26 -1 -7 11 -7 11 -45 1z"/>
<path d="M7181 3457 c-6 -8 -8 -17 -4 -20 3 -4 11 1 18 10 17 23 32 10 33 -31
1 -38 -13 -55 -30 -38 -8 8 -7 16 3 28 13 16 12 16 -9 5 -37 -20 -24 -46 23
-48 l40 -2 -3 42 c-3 23 -9 48 -14 55 -14 16 -43 15 -57 -1z"/>
<path d="M7434 3454 c22 -21 20 -24 -10 -24 -21 0 -25 4 -20 18 5 14 4 14 -9
-2 -18 -23 -19 -40 -5 -67 13 -23 53 -25 71 -2 13 15 12 15 -8 5 -17 -10 -25
-9 -37 4 -25 24 -19 34 19 34 22 0 35 5 35 13 0 17 -20 37 -38 37 -10 0 -10
-3 2 -16z"/>
<path d="M7507 3464 c-15 -15 -6 -44 19 -60 14 -9 23 -23 20 -30 -7 -18 -1
-18 14 1 10 12 6 20 -21 44 -35 32 -33 54 3 32 17 -10 19 -10 16 1 -5 15 -40
23 -51 12z"/>
<path d="M7663 3463 c-7 -2 -13 -12 -13 -21 1 -15 2 -15 14 1 21 28 34 20 34
-23 1 -42 -12 -60 -30 -42 -8 8 -7 16 2 27 11 13 10 15 -3 9 -17 -6 -30 -31
-22 -44 3 -5 22 -9 43 -8 l37 0 -4 47 c-4 55 -20 70 -58 54z"/>
<path d="M7826 3454 c-19 -18 -19 -20 -5 -45 5 -11 14 -17 19 -14 6 4 5 14 -2
25 -9 15 -10 22 -1 31 16 16 33 2 33 -27 0 -14 4 -22 10 -19 6 3 10 15 10 26
0 10 6 19 13 20 13 1 -29 16 -50 18 -6 1 -19 -6 -27 -15z"/>
<path d="M7935 3462 c-6 -4 -10 -28 -10 -55 0 -35 4 -47 15 -47 12 0 15 9 12
41 -4 34 -1 41 17 46 11 3 21 9 21 14 0 13 -17 11 -26 -2 -4 -8 -9 -8 -13 -1
-4 6 -11 8 -16 4z"/>
<path d="M8023 3463 c-7 -2 -13 -12 -13 -21 1 -15 2 -15 14 1 21 28 34 20 34
-23 1 -42 -12 -60 -30 -42 -8 8 -7 16 2 27 11 13 10 15 -3 9 -17 -6 -30 -31
-22 -44 3 -5 22 -9 43 -8 l37 0 -4 47 c-4 55 -20 70 -58 54z"/>
<path d="M8115 3463 c-6 -2 -9 -35 -7 -78 3 -57 7 -75 18 -75 10 0 13 7 8 25
-5 22 -3 25 19 25 42 0 70 54 47 90 -8 13 -61 21 -85 13z m70 -33 c10 -33 -4
-62 -28 -58 -22 3 -34 35 -23 64 8 21 44 17 51 -6z"/>
<path d="M8663 3463 c-7 -2 -13 -12 -13 -21 1 -15 2 -15 14 1 21 28 34 20 34
-23 1 -42 -12 -60 -30 -42 -8 8 -7 16 2 27 11 13 10 15 -3 9 -17 -6 -30 -31
-22 -44 3 -5 22 -9 43 -8 l37 0 -4 47 c-4 55 -20 70 -58 54z"/>
<path d="M8763 3463 c-22 -8 -14 -40 13 -58 15 -10 23 -22 20 -31 -3 -8 -1
-14 5 -14 5 0 12 7 16 16 4 12 -5 26 -28 45 -30 25 -32 28 -15 35 11 4 22 2
28 -7 8 -12 9 -11 5 1 -4 16 -24 22 -44 13z"/>
<path d="M8915 3462 c-5 -4 -10 -28 -10 -55 0 -35 4 -47 15 -47 12 0 15 10 12
43 -5 62 -6 67 -17 59z"/>
<path d="M8975 3462 c-5 -4 -10 -28 -10 -55 0 -35 4 -47 15 -47 11 0 15 11 15
42 0 34 4 43 19 46 16 3 18 -2 15 -42 -3 -36 -1 -46 11 -46 12 0 14 11 11 51
-3 53 -20 71 -45 50 -9 -8 -15 -8 -18 -2 -1 6 -7 7 -13 3z"/>
<path d="M9093 3461 c-4 -3 -8 -39 -8 -79 0 -60 3 -72 16 -72 12 0 15 7 11 25
-4 21 -1 25 21 25 16 0 31 8 37 19 14 26 13 68 -2 77 -15 9 -65 13 -75 5z m62
-51 c0 -29 -4 -36 -22 -38 -21 -3 -23 1 -23 38 0 37 2 41 23 38 18 -2 22 -9
22 -38z"/>
<path d="M9210 3418 l5 -53 38 -2 38 -1 -3 51 c-4 65 -23 73 -23 10 0 -37 -4
-48 -17 -51 -14 -3 -17 6 -20 44 -2 26 -8 49 -13 51 -7 2 -9 -16 -5 -49z"/>
<path d="M330 3444 c0 -8 5 -12 10 -9 6 4 8 11 5 16 -9 14 -15 11 -15 -7z"/>
<path d="M6378 3443 c6 -2 18 -2 25 0 6 3 1 5 -13 5 -14 0 -19 -2 -12 -5z"/>
<path d="M2226 3398 c-9 -36 10 -43 22 -9 9 25 8 31 -2 31 -8 0 -16 -10 -20
-22z"/>
<path d="M6885 3410 c3 -5 -3 -18 -14 -29 -18 -18 -18 -19 5 -17 13 0 24 6 24
13 0 6 3 18 6 27 4 11 1 16 -11 16 -9 0 -14 -4 -10 -10z"/>
<path d="M8516 3398 c-9 -36 10 -43 22 -9 9 25 8 31 -2 31 -8 0 -16 -10 -20
-22z"/>
<path d="M7817 3384 c-3 -3 -3 -12 -1 -19 3 -7 0 -16 -6 -20 -18 -11 9 -35 40
-35 15 0 34 8 41 18 13 15 12 16 -3 3 -21 -16 -72 -7 -65 12 2 7 20 12 40 12
21 0 37 3 37 8 0 4 -9 7 -21 7 -11 0 -28 4 -38 10 -10 5 -21 7 -24 4z"/>
<path d="M8750 3375 c0 -8 4 -15 10 -15 5 0 7 7 4 15 -4 8 -8 15 -10 15 -2 0
-4 -7 -4 -15z"/>
<path d="M330 3370 c0 -5 5 -10 10 -10 6 0 10 5 10 10 0 6 -4 10 -10 10 -5 0
-10 -4 -10 -10z"/>
<path d="M2550 3370 c0 -5 5 -10 10 -10 6 0 10 5 10 10 0 6 -4 10 -10 10 -5 0
-10 -4 -10 -10z"/>
<path d="M7500 3370 c0 -5 5 -10 11 -10 5 0 7 5 4 10 -3 6 -8 10 -11 10 -2 0
-4 -4 -4 -10z"/>
<path d="M5245 3341 c-18 -31 45 -43 81 -16 17 13 16 13 -14 2 -29 -10 -35
-10 -47 6 -8 12 -16 14 -20 8z"/>
<path d="M1134 3085 c0 -66 1 -92 3 -57 2 34 2 88 0 120 -2 31 -3 3 -3 -63z"/>
<path d="M1384 3085 c0 -66 1 -92 3 -57 2 34 2 88 0 120 -2 31 -3 3 -3 -63z"/>
<path d="M857 3184 c-9 -10 2 -24 19 -24 8 0 14 7 14 15 0 15 -21 21 -33 9z"/>
<path d="M931 3176 c-7 -8 -13 -44 -14 -80 l-2 -66 30 1 c17 0 24 3 18 6 -8 3
-13 23 -13 48 0 25 5 45 13 48 10 4 10 6 0 6 -15 1 -18 41 -3 41 6 0 10 -4 10
-10 0 -5 5 -10 10 -10 6 0 10 7 10 15 0 19 -43 20 -59 1z"/>
<path d="M1226 3184 c16 -7 -13 -125 -34 -141 -13 -11 -4 -13 51 -13 55 0 68
3 77 19 16 30 12 36 -8 11 -13 -16 -26 -21 -53 -18 -35 3 -35 4 -27 36 6 22
14 32 28 32 11 0 20 -6 21 -12 0 -7 5 -2 10 11 5 13 7 26 4 29 -3 3 -5 0 -5
-6 0 -7 -11 -12 -24 -12 -22 0 -23 3 -17 28 7 25 12 27 54 26 26 0 47 3 47 8
0 4 -30 8 -67 7 -38 0 -63 -3 -57 -5z"/>
<path d="M1798 3174 c17 -12 22 -25 22 -60 0 -25 -5 -54 -10 -65 -8 -13 -7
-19 0 -19 17 0 32 52 27 95 -5 37 -27 65 -51 65 -6 0 0 -7 12 -16z"/>
<path d="M1995 3110 c0 -79 0 -80 25 -80 24 0 25 3 22 45 -3 37 -1 45 13 45
14 0 16 -8 13 -45 -3 -40 -1 -45 17 -45 19 0 20 5 15 53 -5 49 -7 52 -32 52
-24 -1 -28 3 -28 27 0 22 -5 28 -22 28 -22 0 -23 -4 -23 -80z"/>
<path d="M3137 3182 c6 -4 15 -40 18 -80 4 -40 12 -71 17 -70 5 2 18 19 30 38
19 33 19 33 0 11 l-19 -24 -8 58 c-5 44 -4 60 7 66 8 6 1 9 -22 9 -19 0 -30
-4 -23 -8z"/>
<path d="M3253 3184 c3 -4 1 -16 -5 -28 -9 -18 -9 -19 3 -6 8 8 20 21 28 28
13 10 11 12 -9 12 -13 0 -20 -3 -17 -6z"/>
<path d="M1750 3161 c-21 -41 -6 -131 22 -131 7 0 6 5 -2 15 -8 10 -11 36 -8
75 2 33 3 60 1 60 -1 0 -7 -9 -13 -19z"/>
<path d="M1935 3158 c-27 -31 -21 -121 9 -126 10 -2 23 1 29 7 8 8 8 11 -1 11
-7 0 -12 16 -12 40 0 25 5 40 13 40 8 0 9 2 1 8 -7 4 -13 15 -15 25 -4 17 -6
17 -24 -5z"/>
<path d="M222 3158 c-6 -6 -12 -16 -12 -21 0 -5 7 -2 15 7 9 8 22 13 30 10 25
-10 17 -51 -16 -89 l-31 -35 46 0 c25 0 46 5 46 10 0 6 -14 10 -31 10 l-31 0
27 31 c34 41 31 83 -5 87 -14 2 -31 -3 -38 -10z"/>
<path d="M2640 3156 c-23 -23 -12 -119 14 -124 10 -2 23 1 29 7 8 8 6 11 -6
11 -20 0 -24 59 -5 78 8 8 9 12 1 12 -6 0 -13 7 -15 15 -3 14 -5 14 -18 1z"/>
<path d="M855 3085 c0 -48 2 -55 20 -55 18 0 20 5 17 55 -3 43 -7 55 -20 55
-14 0 -17 -10 -17 -55z"/>
<path d="M2134 3114 c-24 -36 -9 -78 30 -82 16 -2 34 2 40 9 8 9 7 11 -5 6
-18 -6 -39 10 -39 30 0 8 12 13 30 13 24 0 28 3 23 18 -15 39 -55 43 -79 6z
m54 -2 c2 -7 -3 -12 -12 -12 -9 0 -16 7 -16 16 0 17 22 14 28 -4z"/>
<path d="M2235 3084 c0 -47 2 -54 20 -54 18 0 20 5 17 45 -3 37 -1 45 13 45
14 0 16 -8 13 -45 -3 -41 -1 -45 19 -45 20 0 23 5 23 44 0 52 -12 64 -65 64
l-40 1 0 -55z"/>
<path d="M2425 3084 c0 -53 0 -54 30 -54 20 0 26 3 17 9 -8 5 -12 22 -10 42 3
29 6 34 26 31 14 -2 22 2 22 11 0 10 -13 14 -42 14 l-43 1 0 -54z"/>
<path d="M2532 3128 c-7 -7 -12 -26 -12 -43 0 -17 5 -36 12 -43 17 -17 53 -15
69 5 13 15 12 15 -7 5 -16 -8 -24 -8 -32 0 -21 21 -13 38 18 38 33 0 35 3 20
31 -12 21 -50 25 -68 7z m48 -13 c0 -8 -7 -15 -15 -15 -8 0 -15 7 -15 15 0 8
7 15 15 15 8 0 15 -7 15 -15z"/>
<path d="M2710 3088 l5 -53 50 -3 50 -3 -3 56 c-3 49 -6 55 -25 55 -19 0 -22
-6 -22 -42 0 -60 -19 -64 -23 -5 -2 37 -7 47 -20 47 -15 0 -17 -7 -12 -52z"/>
<path d="M2835 3084 c0 -51 1 -54 25 -54 24 0 25 3 21 47 -3 40 -1 45 14 39
10 -3 24 -1 32 6 13 11 15 5 12 -40 -4 -47 -2 -52 16 -52 17 0 20 7 20 42 0
32 4 43 15 43 11 0 15 -11 15 -43 0 -36 3 -42 20 -42 19 0 20 5 15 53 l-5 52
-100 1 -100 1 0 -53z"/>
<path d="M330 3114 c0 -8 5 -12 10 -9 6 4 8 11 5 16 -9 14 -15 11 -15 -7z"/>
<path d="M1538 3113 c23 -2 59 -2 80 0 20 2 1 4 -43 4 -44 0 -61 -2 -37 -4z"/>
<path d="M1538 3063 c23 -2 59 -2 80 0 20 2 1 4 -43 4 -44 0 -61 -2 -37 -4z"/>
<path d="M330 3040 c0 -5 5 -10 10 -10 6 0 10 5 10 10 0 6 -4 10 -10 10 -5 0
-10 -4 -10 -10z"/>
<path d="M1145 2858 c0 -44 -4 -73 -11 -75 -17 -6 -23 44 -8 72 12 22 11 25
-6 25 -34 0 -55 -71 -28 -98 7 -7 32 -12 58 -12 l45 0 -3 80 c-3 74 -5 80 -25
80 -21 0 -22 -5 -22 -72z"/>
<path d="M1280 2915 c0 -8 7 -15 15 -15 8 0 15 7 15 15 0 8 -7 15 -15 15 -8 0
-15 -7 -15 -15z"/>
<path d="M1357 2924 c-4 -4 -7 -16 -7 -26 0 -10 -6 -18 -12 -18 -10 0 -9 -3 1
-9 9 -6 12 -23 10 -55 -4 -45 -4 -46 26 -45 16 0 24 3 18 6 -8 3 -13 23 -13
48 0 25 5 45 13 48 10 4 10 6 0 6 -15 1 -18 41 -3 41 6 0 9 -4 8 -9 -2 -5 2
-9 7 -10 6 -1 10 5 10 12 0 13 -46 22 -58 11z"/>
<path d="M226 2901 c-4 -5 3 -7 14 -4 26 7 40 -26 18 -41 -14 -8 -13 -11 5
-26 28 -23 16 -54 -18 -47 -14 2 -28 0 -31 -4 -3 -5 8 -9 25 -9 42 0 67 35 46
66 -10 15 -11 24 -3 32 17 17 1 42 -26 42 -14 0 -27 -4 -30 -9z"/>
<path d="M862 2868 c-16 -16 -16 -70 0 -86 17 -17 53 -15 69 5 13 15 12 15 -7
5 -16 -8 -24 -8 -32 0 -21 21 -13 38 18 38 33 0 35 3 20 31 -12 21 -50 25 -68
7z m48 -13 c0 -8 -7 -15 -15 -15 -8 0 -15 7 -15 15 0 8 7 15 15 15 8 0 15 -7
15 -15z"/>
<path d="M955 2824 c0 -47 2 -54 20 -54 17 0 20 7 20 42 0 32 4 43 15 43 11 0
15 -11 15 -43 0 -36 3 -42 20 -42 19 0 20 5 15 53 l-5 52 -50 2 -50 1 0 -54z"/>
<path d="M1275 2825 c0 -48 2 -55 20 -55 18 0 20 5 17 55 -3 43 -7 55 -20 55
-14 0 -17 -10 -17 -55z"/>
<path d="M330 2854 c0 -8 5 -12 10 -9 6 4 8 11 5 16 -9 14 -15 11 -15 -7z"/>
<path d="M330 2780 c0 -5 5 -10 10 -10 6 0 10 5 10 10 0 6 -4 10 -10 10 -5 0
-10 -4 -10 -10z"/>
<path d="M3409 2589 c-33 -63 -32 -136 3 -180 l19 -24 -15 32 c-20 41 -20 125
-1 163 9 17 13 30 11 30 -3 0 -10 -10 -17 -21z"/>
<path d="M3616 2575 c19 -47 18 -114 -5 -158 -10 -20 -15 -34 -10 -31 39 24
54 137 25 192 -22 43 -29 41 -10 -3z"/>
<path d="M980 2590 c0 -5 5 -10 10 -10 6 0 10 5 10 10 0 6 -4 10 -10 10 -5 0
-10 -4 -10 -10z"/>
<path d="M1150 2598 c-1 -2 -2 -38 -3 -81 -2 -65 1 -77 14 -77 12 0 15 7 12
28 l-4 27 18 -27 c10 -16 26 -28 36 -28 15 0 14 4 -8 27 -31 34 -32 49 -3 64
15 8 18 14 10 17 -7 2 -21 -7 -32 -20 l-19 -23 -1 48 c0 26 -4 47 -10 47 -5 0
-10 -1 -10 -2z"/>
<path d="M2537 2592 c6 -4 15 -40 18 -80 4 -40 12 -71 17 -70 5 2 18 19 30 38
19 33 19 33 0 11 l-19 -24 -8 58 c-5 44 -4 60 7 66 8 6 1 9 -22 9 -19 0 -30
-4 -23 -8z"/>
<path d="M2653 2594 c3 -4 1 -16 -5 -28 -9 -18 -9 -19 3 -6 8 8 20 21 28 28
13 10 11 12 -9 12 -13 0 -20 -3 -17 -6z"/>
<path d="M2950 2590 c0 -5 7 -10 16 -10 8 0 12 5 9 10 -3 6 -10 10 -16 10 -5
0 -9 -4 -9 -10z"/>
<path d="M3080 2598 c-1 -2 -2 -38 -3 -81 -2 -63 1 -77 13 -77 11 0 15 11 15
42 0 34 4 43 19 46 16 3 18 -2 15 -42 -3 -37 -1 -46 12 -46 14 0 16 8 12 48
-7 58 -17 71 -43 54 -19 -11 -20 -10 -20 23 0 19 -4 35 -10 35 -5 0 -10 -1
-10 -2z"/>
<path d="M3333 2578 c-3 -42 -20 -108 -32 -122 -9 -11 -8 -14 6 -12 13 1 22
18 35 71 21 86 21 85 6 85 -7 0 -14 -10 -15 -22z"/>
<path d="M4048 2584 c17 -12 22 -25 22 -60 0 -25 -5 -54 -10 -65 -8 -13 -7
-19 0 -19 17 0 32 52 27 95 -5 37 -27 65 -51 65 -6 0 0 -7 12 -16z"/>
<path d="M4410 2590 c0 -5 5 -10 10 -10 6 0 10 5 10 10 0 6 -4 10 -10 10 -5 0
-10 -4 -10 -10z"/>
<path d="M4489 2579 c-6 -12 -12 -48 -12 -80 -2 -47 1 -59 13 -59 12 0 14 11
12 49 -3 41 -1 50 15 54 16 4 16 5 1 6 -11 1 -18 9 -18 22 0 18 4 20 26 15 17
-5 23 -3 19 4 -11 17 -44 11 -56 -11z"/>
<path d="M4940 2598 c-1 -2 -2 -38 -3 -81 -2 -63 1 -77 13 -77 12 0 14 14 12
80 -2 44 -8 80 -13 80 -5 0 -9 -1 -9 -2z"/>
<path d="M5760 2570 c0 -23 -4 -28 -17 -24 -17 5 -17 5 0 -6 21 -14 25 -90 3
-90 -24 0 -39 28 -32 63 5 30 5 31 -9 13 -18 -24 -19 -58 -3 -74 7 -7 30 -12
51 -12 32 0 38 3 33 16 -3 9 -6 45 -6 80 0 36 -4 64 -10 64 -5 0 -10 -13 -10
-30z"/>
<path d="M4000 2571 c-21 -41 -6 -131 22 -131 7 0 6 5 -2 15 -8 10 -11 36 -8
75 2 33 3 60 1 60 -1 0 -7 -9 -13 -19z"/>
<path d="M261 2567 c-9 -11 -10 -17 -2 -17 6 0 11 -13 11 -30 0 -26 -4 -30
-26 -30 -26 0 -26 0 -10 28 l17 27 -21 -24 c-26 -30 -22 -45 13 -49 17 -2 27
-9 27 -20 0 -12 4 -9 13 8 7 14 10 27 6 30 -4 3 -9 25 -11 49 -3 39 -5 42 -17
28z"/>
<path d="M1783 2559 c-5 -5 -6 -32 -3 -61 4 -43 9 -53 25 -55 11 -2 14 0 8 3
-15 6 -18 91 -4 96 5 2 3 8 -4 15 -7 7 -16 8 -22 2z"/>
<path d="M2352 2560 c-20 -9 -42 -45 -42 -71 0 -5 11 -21 25 -34 18 -19 34
-25 62 -24 l38 2 -40 6 c-48 8 -65 17 -65 36 0 10 16 15 53 18 l52 3 -52 2
c-38 1 -53 6 -53 16 0 20 26 38 68 47 34 6 34 7 7 7 -16 1 -40 -3 -53 -8z"/>
<path d="M3015 2547 c-4 -13 -5 -41 -3 -63 2 -30 8 -40 23 -42 16 -3 18 -1 8
9 -15 15 -18 86 -4 91 5 2 3 9 -5 16 -11 10 -15 8 -19 -11z"/>
<path d="M5284 2560 c-5 -5 -7 -34 -6 -64 3 -50 6 -56 25 -55 12 0 16 3 10 6
-15 5 -18 90 -4 95 5 2 3 8 -4 15 -7 6 -16 8 -21 3z"/>
<path d="M3813 2532 c31 -15 57 -29 57 -32 0 -4 -27 -19 -60 -35 -33 -16 -58
-30 -56 -32 5 -6 136 60 136 68 0 7 -113 59 -126 58 -5 -1 17 -13 49 -27z"/>
<path d="M863 2541 c-4 -3 -8 -39 -8 -79 0 -60 3 -72 16 -72 12 0 15 7 11 25
-4 21 -1 25 21 25 16 0 31 8 37 19 14 26 13 68 -2 77 -15 9 -65 13 -75 5z m62
-51 c0 -29 -4 -36 -22 -38 -21 -3 -23 1 -23 38 0 37 2 41 23 38 18 -2 22 -9
22 -38z"/>
<path d="M985 2542 c-5 -4 -10 -28 -10 -55 0 -35 4 -47 15 -47 12 0 15 10 12
43 -5 62 -6 67 -17 59z"/>
<path d="M1047 2532 c-37 -41 -11 -100 38 -88 33 8 32 22 -2 21 -24 0 -28 4
-31 33 -4 39 21 55 43 26 12 -16 14 -17 15 -3 0 15 -19 29 -39 29 -4 0 -15 -8
-24 -18z"/>
<path d="M1333 2543 c-7 -2 -13 -12 -13 -21 1 -15 2 -15 14 1 21 28 34 20 34
-23 1 -42 -12 -60 -30 -42 -8 8 -7 16 2 27 11 13 10 15 -3 9 -17 -6 -30 -31
-22 -44 3 -5 22 -9 43 -8 l37 0 -4 47 c-4 55 -20 70 -58 54z"/>
<path d="M1480 2546 c0 -2 11 -28 24 -57 l24 -54 15 36 c26 63 29 79 16 79 -7
0 -10 -3 -6 -6 3 -3 1 -20 -5 -36 -10 -29 -12 -30 -25 -13 -7 11 -13 27 -13
37 0 10 -7 18 -15 18 -8 0 -15 -2 -15 -4z"/>
<path d="M1608 2539 c-21 -12 -24 -69 -6 -87 15 -15 54 -16 63 -2 4 6 -3 9
-15 7 -13 -1 -28 7 -37 21 -15 22 -15 22 21 22 29 0 36 4 36 19 0 28 -31 38
-62 20z m40 -17 c2 -7 -6 -12 -17 -12 -21 0 -27 11 -14 24 9 9 26 2 31 -12z"/>
<path d="M1705 2542 c-6 -4 -10 -28 -10 -55 0 -35 4 -47 15 -47 12 0 15 9 12
41 -4 34 -1 41 17 46 11 3 21 9 21 14 0 13 -17 11 -26 -2 -4 -8 -9 -8 -13 -1
-4 6 -11 8 -16 4z"/>
<path d="M1884 2534 c22 -21 20 -24 -10 -24 -21 0 -25 4 -20 18 5 14 4 14 -9
-2 -18 -23 -19 -40 -5 -67 13 -23 53 -25 71 -2 13 15 12 15 -8 5 -17 -10 -25
-9 -37 4 -25 24 -19 34 19 34 22 0 35 5 35 13 0 17 -20 37 -38 37 -10 0 -10
-3 2 -16z"/>
<path d="M1955 2523 c16 -24 16 -28 1 -55 -10 -15 -13 -28 -7 -28 5 0 13 9 16
20 3 11 10 20 15 20 5 0 12 -9 15 -20 4 -12 15 -20 28 -20 12 0 17 4 11 8 -5
4 -17 18 -26 31 -15 21 -15 26 -1 47 8 13 11 24 5 24 -5 0 -13 -8 -17 -17 -6
-17 -7 -17 -19 0 -22 29 -41 21 -21 -10z"/>
<path d="M2789 2508 c10 -24 20 -50 23 -58 4 -11 9 -8 18 13 7 15 17 27 21 27
4 0 12 -12 17 -27 l10 -28 21 48 c24 55 26 67 10 67 -5 0 -7 -4 -4 -10 3 -5
-1 -22 -9 -37 l-14 -28 -11 28 c-6 16 -9 33 -5 38 3 5 -3 9 -14 9 -15 0 -18
-5 -15 -24 3 -13 0 -32 -5 -42 -9 -15 -12 -12 -23 24 -7 23 -18 42 -25 42 -10
0 -9 -10 5 -42z"/>
<path d="M4170 2508 c0 -57 8 -66 53 -65 l38 1 -3 50 c-2 27 -8 51 -15 53 -8
3 -10 -8 -6 -34 4 -28 1 -43 -11 -52 -23 -20 -36 -4 -36 45 0 24 -4 44 -10 44
-5 0 -10 -19 -10 -42z"/>
<path d="M4295 2542 c-5 -4 -10 -28 -10 -55 0 -35 4 -47 15 -47 11 0 15 11 15
42 0 34 4 43 19 46 16 3 18 -2 15 -42 -3 -36 -1 -46 11 -46 12 0 14 11 11 51
-3 53 -20 71 -45 50 -9 -8 -15 -8 -18 -2 -1 6 -7 7 -13 3z"/>
<path d="M4415 2542 c-5 -4 -10 -28 -10 -55 0 -35 4 -47 15 -47 12 0 15 10 12
43 -5 62 -6 67 -17 59z"/>
<path d="M4560 2530 c-11 -11 -20 -26 -20 -33 0 -24 31 -57 55 -57 24 0 55 33
55 57 0 18 -37 53 -55 53 -8 0 -24 -9 -35 -20z m61 -16 c14 -37 2 -66 -24 -62
-36 5 -37 88 -2 88 8 0 20 -12 26 -26z"/>
<path d="M4675 2542 c-6 -4 -10 -28 -10 -55 0 -35 4 -47 15 -47 12 0 15 9 12
41 -4 34 -1 41 17 46 11 3 21 9 21 14 0 13 -17 11 -26 -2 -4 -8 -9 -8 -13 -1
-4 6 -11 8 -16 4z"/>
<path d="M4755 2542 c-5 -4 -10 -28 -10 -55 0 -35 4 -47 15 -47 12 0 15 10 12
43 -5 62 -6 67 -17 59z"/>
<path d="M4785 2540 c-3 -5 1 -10 10 -10 14 0 16 -8 13 -45 -2 -35 0 -45 12
-45 11 0 15 11 15 42 0 36 3 43 20 43 17 0 20 -7 20 -43 0 -32 4 -42 16 -42
13 0 15 8 9 45 -9 57 -21 71 -48 56 -14 -7 -23 -8 -27 -1 -8 13 -32 13 -40 0z"/>
<path d="M4990 2545 c0 -3 11 -27 24 -53 25 -50 21 -82 -9 -82 -8 0 -15 -4
-15 -10 0 -14 26 -12 37 3 17 21 62 147 53 147 -5 0 -11 -13 -15 -30 -10 -43
-22 -45 -36 -5 -7 19 -19 35 -26 35 -7 0 -13 -2 -13 -5z"/>
<path d="M5182 2538 c-15 -15 -16 -28 -2 -28 6 0 10 7 10 15 0 8 7 15 16 15
12 0 14 -9 12 -42 -3 -42 -28 -68 -28 -29 0 12 5 21 12 21 6 0 8 3 5 6 -10 10
-37 -16 -37 -36 0 -15 8 -18 45 -18 31 1 42 4 36 12 -5 6 -11 29 -13 51 -2 31
-7 41 -23 43 -11 1 -26 -3 -33 -10z"/>
<path d="M5405 2542 c-6 -4 -10 -28 -10 -55 0 -35 4 -47 15 -47 12 0 15 9 12
41 -4 34 -1 41 17 46 11 3 21 9 21 14 0 13 -17 11 -26 -2 -4 -8 -9 -8 -13 -1
-4 6 -11 8 -16 4z"/>
<path d="M5493 2543 c-7 -2 -13 -12 -13 -21 1 -15 2 -15 14 1 21 28 34 20 34
-23 1 -42 -12 -60 -30 -42 -8 8 -7 16 2 27 11 13 10 15 -3 9 -17 -6 -30 -31
-22 -44 3 -5 22 -9 43 -8 l37 0 -4 47 c-4 55 -20 70 -58 54z"/>
<path d="M5589 2545 c0 0 -1 -24 -2 -53 -1 -36 2 -52 11 -52 8 0 12 16 12 46
0 38 3 45 18 42 13 -3 17 -13 17 -46 0 -31 4 -42 15 -42 12 0 15 9 12 43 -5
51 -14 62 -52 62 -17 0 -30 0 -31 0z"/>
<path d="M5826 2534 c-19 -18 -21 -65 -4 -82 7 -7 22 -12 34 -12 49 0 72 61
36 93 -23 21 -46 22 -66 1z m54 -15 c16 -28 8 -63 -14 -67 -22 -5 -36 14 -36
49 0 43 31 55 50 18z"/>
<path d="M5945 2542 c-5 -4 -10 -28 -10 -55 0 -35 4 -47 15 -47 12 0 15 10 12
43 -5 62 -6 67 -17 59z"/>
<path d="M5975 2540 c-3 -5 1 -10 10 -10 14 0 16 -8 13 -45 -2 -35 0 -45 12
-45 11 0 15 11 15 42 0 36 3 43 20 43 17 0 20 -7 20 -43 0 -32 4 -42 16 -42
13 0 15 8 9 45 -9 57 -21 71 -48 56 -14 -7 -23 -8 -27 -1 -8 13 -32 13 -40 0z"/>
<path d="M330 2524 c0 -8 5 -12 10 -9 6 4 8 11 5 16 -9 14 -15 11 -15 -7z"/>
<path d="M2142 2533 c1 -5 -2 -23 -6 -41 -5 -22 -4 -38 3 -45 8 -8 11 -5 11
10 0 11 3 35 6 52 4 20 3 31 -5 31 -6 0 -10 -3 -9 -7z"/>
<path d="M2198 2515 c2 -14 6 -25 8 -25 2 0 4 11 4 25 0 14 -4 25 -9 25 -4 0
-6 -11 -3 -25z"/>
<path d="M2949 2531 c9 -6 12 -22 9 -50 -3 -32 0 -41 12 -41 12 0 14 10 12 50
-3 44 -7 50 -25 50 -16 0 -18 -3 -8 -9z"/>
<path d="M3264 2516 c-17 -27 -16 -67 2 -73 7 -2 10 6 7 22 -3 14 2 36 11 50
9 14 12 25 6 25 -5 0 -17 -11 -26 -24z"/>
<path d="M3492 2533 c1 -5 -2 -23 -6 -41 -5 -22 -4 -38 3 -45 8 -8 11 -5 11
10 0 11 3 35 6 52 4 20 3 31 -5 31 -6 0 -10 -3 -9 -7z"/>
<path d="M3548 2515 c2 -14 6 -25 8 -25 2 0 4 11 4 25 0 14 -4 25 -9 25 -4 0
-6 -11 -3 -25z"/>
<path d="M2179 2453 c-13 -16 -12 -17 4 -4 9 7 17 15 17 17 0 8 -8 3 -21 -13z"/>
<path d="M3529 2453 c-13 -16 -12 -17 4 -4 16 13 21 21 13 21 -2 0 -10 -8 -17
-17z"/>
<path d="M330 2450 c0 -5 5 -10 10 -10 6 0 10 5 10 10 0 6 -4 10 -10 10 -5 0
-10 -4 -10 -10z"/>
<path d="M6120 2450 c0 -5 4 -10 9 -10 6 0 13 5 16 10 3 6 -1 10 -9 10 -9 0
-16 -4 -16 -10z"/>
<path d="M3966 2278 c-9 -12 -16 -29 -15 -38 0 -8 5 -3 11 13 6 16 17 27 29
27 10 0 19 5 19 10 0 18 -29 10 -44 -12z"/>
<path d="M966 2279 c12 -6 26 -21 31 -32 10 -21 10 -21 15 4 3 18 0 25 -11 25
-9 1 -25 4 -36 8 -17 6 -17 5 1 -5z"/>
<path d="M1574 2276 c-42 -18 -64 -52 -64 -97 0 -37 10 -51 45 -62 18 -6 17
-5 -2 9 -44 32 -20 122 40 148 18 8 28 15 22 15 -5 0 -24 -6 -41 -13z"/>
<path d="M1750 2287 c0 -5 29 -89 75 -216 3 -8 7 -12 10 -9 2 2 -14 53 -36
113 -37 101 -49 128 -49 112z"/>
<path d="M1957 2283 c-4 -3 -7 -25 -7 -49 0 -25 -5 -44 -12 -47 -10 -4 -10 -7
0 -18 6 -7 12 -29 12 -49 0 -38 14 -60 40 -60 12 1 12 2 -2 11 -12 7 -18 22
-18 47 0 21 -5 43 -12 50 -8 8 -8 15 -1 24 6 7 13 32 15 56 3 40 -1 50 -15 35z"/>
<path d="M2189 2243 c2 -27 7 -53 13 -60 6 -7 5 -14 -2 -18 -5 -3 -10 -24 -10
-45 0 -27 -6 -42 -17 -49 -24 -14 -7 -14 18 -1 14 8 19 21 19 55 0 28 4 45 12
45 9 0 9 3 0 12 -7 7 -12 26 -12 44 0 18 -3 39 -6 48 -12 31 -19 16 -15 -31z"/>
<path d="M3454 2276 c-42 -18 -64 -52 -64 -97 0 -37 10 -51 45 -62 18 -6 17
-5 -2 9 -44 32 -20 122 40 148 18 8 28 15 22 15 -5 0 -24 -6 -41 -13z"/>
<path d="M3630 2285 c0 -14 72 -216 77 -212 2 2 -14 53 -36 113 -22 60 -40
105 -41 99z"/>
<path d="M4054 2265 c-34 -52 -27 -154 13 -187 13 -10 13 -7 -2 15 -24 38 -25
135 -1 171 9 14 14 26 11 26 -2 0 -12 -11 -21 -25z"/>
<path d="M4255 2265 c8 -16 15 -55 15 -85 0 -30 -7 -68 -15 -85 l-15 -30 20
23 c38 46 38 138 0 184 l-20 23 15 -30z"/>
<path d="M892 2255 c-54 -45 -49 -123 8 -138 19 -5 19 -3 -5 19 -16 15 -25 31
-21 40 3 9 6 22 6 31 0 8 13 28 29 44 36 36 24 38 -17 4z"/>
<path d="M1640 2266 c6 -6 10 -19 11 -30 0 -21 0 -21 9 -1 14 32 11 41 -10 41
-13 0 -16 -4 -10 -10z"/>
<path d="M2619 2273 c-1 -5 0 -18 1 -30 1 -17 -3 -21 -15 -17 -39 15 -75 -67
-41 -95 14 -12 74 -11 75 2 5 51 -1 147 -9 147 -5 0 -10 -3 -11 -7z m-1 -96
c2 -27 -1 -39 -13 -44 -20 -7 -35 12 -35 48 0 56 43 52 48 -4z"/>
<path d="M2774 2262 c-28 -22 -44 -54 -44 -86 0 -25 23 -56 41 -56 6 0 3 7 -5
16 -9 8 -16 25 -16 36 0 32 29 84 53 96 14 7 16 11 7 11 -8 0 -25 -7 -36 -17z"/>
<path d="M2860 2266 c6 -6 10 -19 10 -30 0 -17 2 -18 10 -6 16 25 11 46 -10
46 -13 0 -16 -4 -10 -10z"/>
<path d="M3520 2266 c6 -6 10 -19 11 -30 0 -21 0 -21 9 -1 14 32 11 41 -10 41
-13 0 -16 -4 -10 -10z"/>
<path d="M3847 2273 c-4 -3 -7 -18 -7 -32 0 -18 3 -22 9 -13 5 9 15 -6 30 -47
13 -36 28 -61 37 -61 18 0 18 2 -5 42 -11 18 -25 52 -32 76 -12 41 -19 49 -32
35z"/>
<path d="M230 2239 c-13 -23 -11 -27 22 -43 15 -7 23 -21 23 -36 0 -22 -4 -25
-32 -24 -18 1 -33 -2 -33 -7 0 -15 57 -10 69 5 19 23 9 70 -16 81 -30 13 -29
25 2 25 14 0 25 5 25 10 0 19 -49 10 -60 -11z"/>
<path d="M1240 2207 l-25 -32 30 -30 c29 -29 29 -29 12 -3 l-17 27 88 4 87 3
-88 2 -88 2 16 30 c20 39 16 38 -15 -3z"/>
<path d="M3131 2233 c-1 -7 -10 -22 -21 -33 l-20 -20 20 -20 c11 -11 20 -25
20 -32 0 -6 3 -9 6 -6 3 4 1 15 -5 27 -11 20 -8 20 76 24 l88 3 -87 2 c-86 2
-99 7 -77 29 6 6 9 17 6 25 -4 9 -6 10 -6 1z"/>
<path d="M2342 2218 c-15 -15 -16 -28 -2 -28 6 0 10 7 10 15 0 8 7 15 16 15
12 0 14 -9 12 -42 -3 -42 -28 -68 -28 -29 0 12 5 21 12 21 6 0 8 3 5 6 -10 10
-37 -16 -37 -36 0 -15 8 -18 45 -18 31 1 42 4 36 12 -5 6 -11 29 -13 51 -2 31
-7 41 -23 43 -11 1 -26 -3 -33 -10z"/>
<path d="M2445 2222 c-5 -4 -10 -28 -10 -55 0 -35 4 -47 15 -47 11 0 15 11 15
42 0 34 4 43 19 46 16 3 18 -2 15 -42 -3 -36 -1 -46 11 -46 12 0 14 11 11 51
-3 53 -20 71 -45 50 -9 -8 -15 -8 -18 -2 -1 6 -7 7 -13 3z"/>
<path d="M330 2204 c0 -8 5 -12 10 -9 6 4 8 11 5 16 -9 14 -15 11 -15 -7z"/>
<path d="M2035 2209 c-4 -6 -5 -12 -2 -15 2 -3 7 2 10 11 7 17 1 20 -8 4z"/>
<path d="M2056 2189 c-9 -45 -8 -69 4 -69 5 0 7 6 4 13 -3 8 0 26 6 42 6 17 7
32 2 37 -6 6 -12 -4 -16 -23z"/>
<path d="M2110 2213 c0 -5 5 -15 10 -23 8 -12 10 -11 10 8 0 12 -4 22 -10 22
-5 0 -10 -3 -10 -7z"/>
<path d="M3941 2204 c0 -11 3 -14 6 -6 3 7 2 16 -1 19 -3 4 -6 -2 -5 -13z"/>
<path d="M4131 2180 c-11 -38 -9 -60 7 -60 4 0 8 23 9 50 2 28 1 50 -1 50 -1
0 -8 -18 -15 -40z"/>
<path d="M4190 2211 c0 -6 5 -13 10 -16 6 -3 10 1 10 9 0 9 -4 16 -10 16 -5 0
-10 -4 -10 -9z"/>
<path d="M3831 2194 c0 -11 3 -14 6 -6 3 7 2 16 -1 19 -3 4 -6 -2 -5 -13z"/>
<path d="M1040 2171 c-13 -26 -13 -53 3 -74 10 -15 11 -9 9 33 -4 46 -2 50 18
50 20 0 22 -4 18 -49 -2 -39 0 -47 10 -39 27 23 6 98 -28 98 -11 0 -24 -9 -30
-19z"/>
<path d="M2930 2180 c-10 -6 -11 -10 -2 -10 7 0 12 -15 12 -39 0 -22 -5 -42
-12 -44 -7 -3 -2 -6 12 -6 24 -1 25 1 22 54 -4 57 -7 61 -32 45z"/>
<path d="M966 2158 c-9 -36 10 -43 22 -9 9 25 8 31 -2 31 -8 0 -16 -10 -20
-22z"/>
<path d="M1620 2160 c0 -10 -8 -24 -17 -30 -17 -11 -17 -11 0 -6 10 3 22 6 27
6 4 0 10 11 12 25 4 17 1 25 -8 25 -8 0 -14 -9 -14 -20z"/>
<path d="M2845 2170 c3 -5 -3 -18 -14 -29 -18 -18 -18 -19 5 -17 13 0 24 6 24
13 0 6 3 18 6 27 4 11 1 16 -11 16 -9 0 -14 -4 -10 -10z"/>
<path d="M3500 2160 c0 -10 -8 -24 -17 -30 -17 -11 -17 -11 0 -6 10 3 22 6 27
6 4 0 10 11 12 25 4 17 1 25 -8 25 -8 0 -14 -9 -14 -20z"/>
<path d="M3931 2164 c0 -11 3 -14 6 -6 3 7 2 16 -1 19 -3 4 -6 -2 -5 -13z"/>
<path d="M3815 2150 c-4 -11 -12 -19 -19 -18 -6 2 -13 -1 -14 -7 -2 -5 3 -11
11 -13 13 -3 43 46 33 55 -2 2 -7 -5 -11 -17z"/>
<path d="M330 2130 c0 -5 5 -10 10 -10 6 0 10 5 10 10 0 6 -4 10 -10 10 -5 0
-10 -4 -10 -10z"/>
<path d="M1634 1935 c-34 -52 -27 -154 13 -187 13 -10 13 -7 -2 15 -24 38 -25
135 -1 171 9 14 14 26 11 26 -2 0 -12 -11 -21 -25z"/>
<path d="M2154 1946 c-42 -18 -64 -52 -64 -97 0 -37 10 -51 45 -62 18 -6 17
-5 -2 9 -44 32 -20 122 40 148 18 8 28 15 22 15 -5 0 -24 -6 -41 -13z"/>
<path d="M2395 1937 c24 -38 29 -107 11 -151 -20 -49 -14 -59 8 -12 22 47 20
114 -4 154 -11 17 -22 32 -25 32 -3 0 1 -10 10 -23z"/>
<path d="M857 1944 c-9 -10 2 -24 19 -24 8 0 14 7 14 15 0 15 -21 21 -33 9z"/>
<path d="M931 1936 c-7 -8 -13 -44 -14 -80 l-2 -66 30 1 c17 0 24 3 18 6 -8 3
-13 23 -13 48 0 25 5 45 13 48 10 4 10 6 0 6 -15 1 -18 41 -3 41 6 0 10 -4 10
-10 0 -5 5 -10 10 -10 6 0 10 7 10 15 0 19 -43 20 -59 1z"/>
<path d="M1089 1940 c-9 -5 -22 -23 -29 -40 -15 -35 0 -84 31 -100 28 -15 31
-12 9 10 -13 13 -20 33 -20 60 0 27 7 47 20 60 21 21 16 26 -11 10z"/>
<path d="M1164 1936 c7 -6 18 -20 24 -31 10 -18 11 -17 12 11 0 27 -4 32 -25
32 -20 0 -23 -3 -11 -12z"/>
<path d="M1228 1943 c8 -3 12 -28 12 -73 0 -45 -4 -70 -12 -73 -7 -3 1 -5 17
-5 17 0 24 2 18 5 -9 3 -13 27 -12 71 l0 67 27 -67 c32 -78 38 -86 45 -58 3
11 2 18 -2 15 -4 -2 -18 25 -30 60 -21 58 -26 65 -50 64 -14 0 -20 -3 -13 -6z"/>
<path d="M1370 1876 c0 -50 -4 -76 -12 -79 -7 -3 5 -5 27 -5 22 0 32 2 23 5
-15 4 -18 16 -18 73 0 57 3 69 18 73 10 3 6 5 -10 6 l-28 1 0 -74z"/>
<path d="M1448 1943 c8 -3 12 -28 12 -73 0 -45 -4 -70 -12 -73 -7 -3 3 -5 22
-5 19 0 29 2 23 5 -7 2 -13 17 -13 32 0 24 5 28 43 37 33 7 43 14 45 32 6 39
-15 52 -77 51 -31 0 -50 -3 -43 -6z m99 -19 c9 -24 -10 -49 -41 -52 -24 -3
-26 0 -26 32 0 33 2 36 30 36 19 0 33 -6 37 -16z"/>
<path d="M1734 1932 c-28 -22 -44 -54 -44 -86 0 -25 23 -56 41 -56 6 0 3 7 -5
16 -9 8 -16 25 -16 36 0 32 29 84 53 96 14 7 16 11 7 11 -8 0 -25 -7 -36 -17z"/>
<path d="M1820 1936 c6 -6 10 -19 10 -30 0 -17 2 -18 10 -6 16 25 11 46 -10
46 -13 0 -16 -4 -10 -10z"/>
<path d="M2220 1936 c6 -6 10 -19 11 -30 0 -21 0 -21 9 -1 14 32 11 41 -10 41
-13 0 -16 -4 -10 -10z"/>
<path d="M2832 1940 c21 -13 31 -76 18 -120 -9 -32 -9 -33 7 -18 35 36 11 149
-31 148 -6 0 -4 -5 6 -10z"/>
<path d="M3035 1870 c0 -73 2 -80 20 -80 17 0 20 7 20 42 0 24 5 43 13 45 8 3
12 -9 12 -41 0 -41 2 -46 23 -46 21 0 23 4 20 33 -9 75 -12 80 -43 73 -28 -5
-30 -3 -30 24 0 22 -5 30 -17 30 -16 0 -18 -10 -18 -80z"/>
<path d="M2792 1928 c-16 -16 -16 -113 1 -126 9 -8 12 6 12 64 0 41 0 74 0 74
-1 0 -6 -5 -13 -12z"/>
<path d="M235 1905 c-26 -25 -32 -63 -15 -96 17 -30 29 -22 17 11 -13 34 1 57
28 46 13 -5 16 -15 13 -41 -3 -27 -1 -32 9 -23 17 13 17 52 1 66 -7 5 -22 12
-33 14 -19 3 -19 4 3 26 12 12 17 22 12 22 -6 0 -22 -11 -35 -25z"/>
<path d="M2970 1916 c-23 -23 -12 -119 14 -124 10 -2 23 1 29 7 8 8 6 11 -6
11 -20 0 -24 59 -5 78 8 8 9 12 1 12 -6 0 -13 7 -15 15 -3 14 -5 14 -18 1z"/>
<path d="M855 1845 c0 -48 2 -55 20 -55 18 0 20 5 17 55 -3 43 -7 55 -20 55
-14 0 -17 -10 -17 -55z"/>
<path d="M3176 1884 c-29 -29 -13 -94 24 -94 27 0 50 11 50 23 0 8 -3 8 -11 0
-16 -16 -39 -5 -39 18 0 14 7 19 25 19 27 0 33 18 13 38 -17 17 -44 15 -62 -4z
m44 -9 c0 -8 -7 -15 -15 -15 -16 0 -20 12 -8 23 11 12 23 8 23 -8z"/>
<path d="M3265 1845 c0 -52 1 -55 25 -55 24 0 25 3 22 45 -3 37 -1 45 13 45
14 0 16 -8 13 -45 -3 -40 -1 -45 17 -45 19 0 20 5 15 53 l-5 52 -50 2 -50 3 0
-55z"/>
<path d="M330 1874 c0 -8 5 -12 10 -9 6 4 8 11 5 16 -9 14 -15 11 -15 -7z"/>
<path d="M2578 1873 c23 -2 59 -2 80 0 20 2 1 4 -43 4 -44 0 -61 -2 -37 -4z"/>
<path d="M1880 1841 c-13 -26 -13 -53 3 -74 10 -15 11 -9 9 33 -4 46 -2 50 18
50 20 0 22 -4 18 -49 -2 -39 0 -47 10 -39 27 23 6 98 -28 98 -11 0 -24 -9 -30
-19z"/>
<path d="M2290 1850 c-10 -6 -11 -10 -2 -10 7 0 12 -15 12 -39 0 -22 -5 -42
-12 -44 -7 -3 1 -6 17 -6 17 0 25 3 18 7 -6 4 -13 29 -15 54 -2 39 -6 46 -18
38z"/>
<path d="M1805 1840 c3 -5 -3 -18 -14 -29 -18 -18 -18 -19 5 -17 13 0 24 6 24
13 0 6 3 18 6 27 4 11 1 16 -11 16 -9 0 -14 -4 -10 -10z"/>
<path d="M2200 1830 c0 -10 -8 -24 -17 -30 -17 -11 -17 -11 0 -6 10 3 22 6 27
6 4 0 10 11 12 25 4 17 1 25 -8 25 -8 0 -14 -9 -14 -20z"/>
<path d="M2578 1823 c23 -2 59 -2 80 0 20 2 1 4 -43 4 -44 0 -61 -2 -37 -4z"/>
<path d="M1166 1805 c-11 -8 -15 -15 -9 -15 6 0 16 7 23 15 16 19 11 19 -14 0z"/>
<path d="M330 1800 c0 -5 5 -10 10 -10 6 0 10 5 10 10 0 6 -4 10 -10 10 -5 0
-10 -4 -10 -10z"/>
<path d="M1990 1800 c0 -5 5 -10 10 -10 6 0 10 5 10 10 0 6 -4 10 -10 10 -5 0
-10 -4 -10 -10z"/>
<path d="M1316 1619 c12 -6 26 -21 31 -32 10 -21 10 -21 15 4 3 18 0 25 -11
25 -9 1 -25 4 -36 8 -17 6 -17 5 1 -5z"/>
<path d="M1824 1616 c-42 -18 -64 -52 -64 -97 0 -37 10 -51 45 -62 18 -6 17
-5 -2 9 -44 32 -20 122 40 148 18 8 28 15 22 15 -5 0 -24 -6 -41 -13z"/>
<path d="M1242 1595 c-54 -45 -49 -123 8 -138 19 -5 19 -3 -5 19 -16 15 -25
31 -21 40 3 9 6 22 6 31 0 8 13 28 29 44 36 36 24 38 -17 4z"/>
<path d="M1890 1606 c6 -6 10 -19 11 -30 0 -21 0 -21 9 -1 14 32 11 41 -10 41
-13 0 -16 -4 -10 -10z"/>
<path d="M7848 1609 c7 -7 12 -39 12 -75 0 -41 -4 -64 -12 -67 -7 -3 3 -5 22
-5 19 0 29 2 23 5 -15 5 -18 63 -4 63 5 0 21 -16 35 -35 15 -19 34 -35 42 -35
12 0 9 8 -10 31 -30 35 -32 45 -11 53 17 6 21 51 5 61 -5 3 -33 9 -62 12 -44
5 -51 3 -40 -8z m76 -15 c9 -8 16 -17 16 -19 0 -2 -7 -11 -16 -19 -25 -25 -44
-20 -44 12 0 44 17 54 44 26z"/>
<path d="M217 1593 c-15 -14 -6 -19 28 -15 19 2 35 2 35 0 0 -3 -9 -30 -19
-61 -11 -32 -16 -57 -12 -57 4 0 15 26 25 58 10 31 21 63 23 70 4 8 -7 12 -34
12 -22 0 -43 -3 -46 -7z"/>
<path d="M8985 1567 c-4 -13 -5 -41 -3 -63 2 -30 8 -40 23 -42 16 -3 18 -1 8
9 -15 15 -18 86 -4 91 5 2 3 9 -5 16 -11 10 -15 8 -19 -11z"/>
<path d="M1501 1573 c-1 -7 -10 -22 -21 -33 l-20 -20 20 -20 c11 -11 20 -25
20 -32 0 -6 3 -9 6 -6 3 4 1 15 -5 27 -11 20 -8 20 76 24 l88 3 -87 2 c-86 2
-99 7 -77 29 6 6 9 17 6 25 -4 9 -6 10 -6 1z"/>
<path d="M7660 1520 c0 -33 3 -60 8 -60 4 0 29 13 56 29 l49 29 -29 18 c-61
37 -73 44 -79 44 -3 0 -5 -27 -5 -60z m59 19 l34 -20 -32 -20 c-44 -27 -51
-24 -51 21 0 22 3 40 8 40 4 0 22 -9 41 -21z"/>
<path d="M8018 1559 c-21 -12 -24 -69 -6 -87 15 -15 54 -16 63 -2 4 6 -3 9
-15 7 -13 -1 -28 7 -37 21 -15 22 -15 22 21 22 29 0 36 4 36 19 0 28 -31 38
-62 20z m40 -17 c2 -7 -6 -12 -17 -12 -21 0 -27 11 -14 24 9 9 26 2 31 -12z"/>
<path d="M8113 1563 c-5 -2 -6 -25 -5 -53 5 -62 27 -68 27 -8 0 36 3 43 20 43
17 0 20 -7 20 -43 0 -31 4 -42 15 -42 12 0 14 10 12 45 -4 41 -2 45 18 45 20
0 22 -4 18 -45 -2 -35 0 -45 12 -45 12 0 14 10 12 45 -5 52 -22 71 -50 56 -11
-6 -23 -7 -27 -3 -6 7 -56 10 -72 5z"/>
<path d="M8300 1550 c-11 -11 -20 -26 -20 -33 0 -24 31 -57 55 -57 24 0 55 33
55 57 0 18 -37 53 -55 53 -8 0 -24 -9 -35 -20z m61 -16 c14 -37 2 -66 -24 -62
-36 5 -37 88 -2 88 8 0 20 -12 26 -26z"/>
<path d="M8421 1523 c11 -27 23 -51 27 -55 4 -4 17 17 29 47 11 30 18 55 14
55 -4 0 -14 -19 -21 -42 l-13 -43 -15 43 c-9 23 -22 42 -29 42 -9 0 -7 -13 8
-47z"/>
<path d="M8564 1554 c22 -21 20 -24 -10 -24 -21 0 -25 4 -20 18 5 14 4 14 -9
-2 -18 -23 -19 -40 -5 -67 13 -23 53 -25 71 -2 13 15 12 15 -8 5 -17 -10 -25
-9 -37 4 -25 24 -19 34 19 34 22 0 35 5 35 13 0 17 -20 37 -38 37 -10 0 -10
-3 2 -16z"/>
<path d="M8701 1523 c11 -27 23 -51 27 -55 4 -4 17 17 29 47 11 30 18 55 14
55 -4 0 -14 -19 -21 -42 l-13 -43 -15 43 c-9 23 -22 42 -29 42 -9 0 -7 -13 8
-47z"/>
<path d="M8807 1552 c-20 -22 -22 -63 -5 -80 17 -17 53 -15 69 5 13 15 12 15
-6 6 -23 -13 -55 0 -55 22 0 10 10 15 29 15 37 0 46 13 25 34 -20 21 -37 20
-57 -2z m41 -10 c2 -7 -6 -12 -17 -12 -21 0 -27 11 -14 24 9 9 26 2 31 -12z"/>
<path d="M8920 1561 c-22 -5 -25 -11 -25 -54 0 -40 3 -47 20 -47 18 0 20 5 17
45 -4 41 -2 45 18 45 11 0 18 5 15 10 -7 11 -7 11 -45 1z"/>
<path d="M9058 1559 c-21 -12 -24 -69 -6 -87 15 -15 54 -16 63 -2 4 6 -3 9
-15 7 -13 -1 -28 7 -37 21 -15 22 -15 22 21 22 29 0 36 4 36 19 0 28 -31 38
-62 20z m40 -17 c2 -7 -6 -12 -17 -12 -21 0 -27 11 -14 24 9 9 26 2 31 -12z"/>
<path d="M9158 1542 c20 -27 20 -28 0 -55 -24 -33 -14 -36 13 -4 l19 22 6 -22
c4 -14 14 -23 26 -23 19 0 19 1 -1 26 -25 32 -26 42 -4 66 15 17 15 18 0 18
-10 0 -17 -7 -17 -15 0 -8 -4 -15 -10 -15 -5 0 -10 7 -10 15 0 8 -9 15 -21 15
-20 0 -20 0 -1 -28z"/>
<path d="M330 1544 c0 -8 5 -12 10 -9 6 4 8 11 5 16 -9 14 -15 11 -15 -7z"/>
<path d="M9341 1520 c-11 -38 -9 -60 7 -60 4 0 8 23 9 50 2 28 1 50 -1 50 -1
0 -8 -18 -15 -40z"/>
<path d="M9400 1551 c0 -6 5 -13 10 -16 6 -3 10 1 10 9 0 9 -4 16 -10 16 -5 0
-10 -4 -10 -9z"/>
<path d="M1952 1528 c-14 -14 -16 -84 -3 -92 5 -3 6 14 3 39 -4 36 -1 46 13
51 31 12 50 -57 23 -84 -8 -8 -8 -12 -1 -12 14 0 23 24 23 59 0 28 -16 51 -35
51 -6 0 -16 -5 -23 -12z"/>
<path d="M1316 1498 c-9 -36 10 -43 22 -9 9 25 8 31 -2 31 -8 0 -16 -10 -20
-22z"/>
<path d="M1870 1500 c0 -10 -8 -24 -17 -30 -17 -11 -17 -11 0 -6 10 3 22 6 27
6 4 0 10 11 12 25 4 17 1 25 -8 25 -8 0 -14 -9 -14 -20z"/>
<path d="M330 1470 c0 -5 5 -10 10 -10 6 0 10 5 10 10 0 6 -4 10 -10 10 -5 0
-10 -4 -10 -10z"/>
<path d="M955 1280 c0 -73 2 -80 20 -80 19 0 20 6 17 80 -3 67 -6 80 -20 80
-15 0 -17 -12 -17 -80z"/>
<path d="M223 1324 c-3 -9 -1 -25 6 -35 8 -15 8 -23 0 -38 -13 -20 -6 -51 11
-51 6 0 6 7 -2 20 -10 15 -10 22 -1 31 17 17 46 -8 39 -33 -4 -16 -2 -17 10
-7 18 15 18 33 -1 49 -11 9 -12 16 -3 30 13 20 4 50 -14 50 -10 0 -9 -3 1 -9
17 -11 7 -41 -13 -41 -19 0 -27 25 -13 39 8 8 8 11 -1 11 -7 0 -15 -7 -19 -16z"/>
<path d="M862 1298 c-16 -16 -16 -70 0 -86 17 -17 53 -15 69 5 13 15 12 15 -7
5 -16 -8 -24 -8 -32 0 -21 21 -13 38 18 38 33 0 35 3 20 31 -12 21 -50 25 -68
7z m48 -13 c0 -8 -7 -15 -15 -15 -8 0 -15 7 -15 15 0 8 7 15 15 15 8 0 15 -7
15 -15z"/>
<path d="M1027 1303 c-15 -14 -6 -43 18 -59 14 -9 25 -20 25 -25 0 -14 -38
-11 -43 4 -3 7 -6 5 -6 -5 -1 -26 55 -24 69 2 11 20 7 25 -35 55 -25 17 -11
33 15 17 17 -10 20 -10 20 3 0 15 -50 22 -63 8z"/>
<path d="M1122 1298 c-16 -16 -16 -70 0 -86 17 -17 53 -15 69 5 13 15 12 15
-7 5 -16 -8 -24 -8 -32 0 -21 21 -13 38 18 38 33 0 35 3 20 31 -12 21 -50 25
-68 7z m48 -13 c0 -8 -7 -15 -15 -15 -8 0 -15 7 -15 15 0 8 7 15 15 15 8 0 15
-7 15 -15z"/>
<path d="M330 1284 c0 -8 5 -12 10 -9 6 4 8 11 5 16 -9 14 -15 11 -15 -7z"/>
<path d="M330 1210 c0 -5 5 -10 10 -10 6 0 10 5 10 10 0 6 -4 10 -10 10 -5 0
-10 -4 -10 -10z"/>
<path d="M1316 1109 c12 -6 26 -21 31 -32 10 -21 10 -21 15 4 3 18 0 25 -11
25 -9 1 -25 4 -36 8 -17 6 -17 5 1 -5z"/>
<path d="M1824 1106 c-42 -18 -64 -52 -64 -97 0 -37 10 -51 45 -62 18 -6 17
-5 -2 9 -44 32 -20 122 40 148 18 8 28 15 22 15 -5 0 -24 -6 -41 -13z"/>
<path d="M1242 1085 c-54 -45 -49 -123 8 -138 19 -5 19 -3 -5 19 -16 15 -25
31 -21 40 3 9 6 22 6 31 0 8 13 28 29 44 36 36 24 38 -17 4z"/>
<path d="M1890 1096 c6 -6 10 -19 11 -30 0 -21 0 -21 9 -1 14 32 11 41 -10 41
-13 0 -16 -4 -10 -10z"/>
<path d="M6905 1030 c0 -74 2 -80 20 -80 18 0 20 5 18 38 l-4 37 33 -38 c18
-20 42 -37 52 -37 17 0 18 2 5 13 -8 6 -23 22 -33 34 -17 21 -17 22 3 42 35
35 1 71 -67 71 l-27 0 0 -80z m71 56 c15 -12 17 -18 8 -33 -6 -10 -19 -19 -28
-21 -12 -3 -16 4 -16 32 0 39 6 43 36 22z"/>
<path d="M7808 1104 c-5 -4 -8 -40 -8 -81 0 -54 3 -73 13 -73 10 0 13 13 13
43 -1 36 2 42 19 42 17 0 20 -7 20 -43 0 -31 4 -42 15 -42 12 0 15 9 12 43 -5
52 -19 70 -48 63 -20 -5 -23 -2 -26 25 -2 17 -6 27 -10 23z"/>
<path d="M8310 1100 c0 -5 5 -10 10 -10 6 0 10 5 10 10 0 6 -4 10 -10 10 -5 0
-10 -4 -10 -10z"/>
<path d="M8490 1108 c-1 -2 -2 -38 -3 -81 -2 -63 1 -77 13 -77 11 0 15 11 15
42 0 34 4 43 19 46 16 3 18 -2 15 -42 -3 -37 -1 -46 12 -46 14 0 16 8 12 48
-7 58 -17 71 -43 54 -19 -11 -20 -10 -20 23 0 19 -4 35 -10 35 -5 0 -10 -1
-10 -2z"/>
<path d="M8609 1106 c-2 -2 -3 -38 -1 -80 4 -76 4 -76 31 -76 32 0 61 27 61
58 0 28 -28 55 -51 49 -15 -4 -19 1 -19 24 0 26 -9 37 -21 25z m67 -91 c8 -34
-1 -55 -26 -55 -17 0 -20 6 -20 40 0 33 3 40 20 40 13 0 22 -9 26 -25z"/>
<path d="M9214 1102 c-17 -11 -26 -43 -27 -100 -2 -49 -1 -52 23 -52 19 0 21
3 12 12 -18 18 -15 75 6 87 16 10 16 10 -1 11 -12 0 -17 6 -15 18 3 11 12 16
26 15 14 -2 21 1 17 7 -7 12 -26 13 -41 2z"/>
<path d="M222 1078 c-30 -30 -2 -86 38 -75 17 4 18 2 10 -14 -6 -10 -18 -23
-28 -28 -10 -6 -12 -11 -4 -11 22 0 62 48 62 75 0 31 -16 65 -32 65 -7 0 -7
-5 2 -14 16 -20 9 -60 -12 -64 -22 -4 -35 42 -18 63 15 18 -1 20 -18 3z"/>
<path d="M7744 1070 c-5 -5 -7 -34 -6 -64 3 -50 6 -56 25 -55 12 0 16 3 10 6
-15 5 -18 90 -4 95 5 2 3 8 -4 15 -7 6 -16 8 -21 3z"/>
<path d="M1501 1063 c-1 -7 -10 -22 -21 -33 l-20 -20 20 -20 c11 -11 20 -25
20 -32 0 -6 3 -9 6 -6 3 4 1 15 -5 27 -11 20 -8 20 76 24 l88 3 -87 2 c-86 2
-99 7 -77 29 6 6 9 17 6 25 -4 9 -6 10 -6 1z"/>
<path d="M6720 1009 l0 -60 50 27 c28 15 50 30 50 33 0 3 -23 18 -50 33 l-50
28 0 -61z m80 1 c0 -6 -54 -40 -64 -40 -3 0 -6 18 -6 40 l0 40 35 -17 c19 -9
35 -19 35 -23z"/>
<path d="M7067 1042 c-20 -22 -22 -63 -5 -80 17 -17 53 -15 69 5 13 15 12 15
-6 6 -23 -13 -55 0 -55 22 0 10 10 15 29 15 37 0 46 13 25 34 -20 21 -37 20
-57 -2z m41 -10 c2 -7 -6 -12 -17 -12 -21 0 -27 11 -14 24 9 9 26 2 31 -12z"/>
<path d="M7190 1051 c-22 -5 -25 -11 -25 -54 0 -35 4 -47 15 -47 12 0 14 10
12 45 -4 41 -2 45 18 45 20 0 22 -4 18 -45 -2 -35 0 -45 12 -45 12 0 14 10 12
44 -3 33 0 45 12 49 21 8 29 -12 24 -58 -3 -27 0 -35 12 -35 12 0 14 10 11 51
-3 54 -17 67 -50 50 -13 -7 -22 -8 -26 -1 -7 11 -7 11 -45 1z"/>
<path d="M7356 1044 c-19 -18 -21 -65 -4 -82 7 -7 22 -12 34 -12 49 0 72 61
36 93 -23 21 -46 22 -66 1z m54 -15 c16 -28 8 -63 -14 -67 -22 -5 -36 14 -36
49 0 43 31 55 50 18z"/>
<path d="M7465 1030 c8 -16 20 -42 26 -57 l12 -28 23 50 c26 56 28 65 15 65
-5 0 -12 -16 -15 -35 -4 -19 -11 -35 -15 -35 -11 0 -31 56 -24 64 4 3 -4 6
-16 6 -21 0 -21 -1 -6 -30z"/>
<path d="M7614 1044 c22 -21 20 -24 -10 -24 -21 0 -25 4 -20 18 5 14 4 14 -9
-2 -18 -23 -19 -40 -5 -67 13 -23 53 -25 71 -2 13 15 12 15 -8 5 -17 -10 -25
-9 -37 4 -25 24 -19 34 19 34 22 0 35 5 35 13 0 17 -20 37 -38 37 -10 0 -10
-3 2 -16z"/>
<path d="M7927 1042 c-20 -22 -22 -63 -5 -80 17 -17 53 -15 69 5 13 15 12 15
-6 6 -23 -13 -55 0 -55 22 0 10 10 15 29 15 37 0 46 13 25 34 -20 21 -37 20
-57 -2z m41 -10 c2 -7 -6 -12 -17 -12 -21 0 -27 11 -14 24 9 9 26 2 31 -12z"/>
<path d="M8089 1055 c0 0 -1 -24 -2 -53 -1 -36 2 -52 11 -52 8 0 12 16 12 46
0 38 3 45 18 42 13 -3 17 -13 17 -46 0 -31 4 -42 15 -42 12 0 15 9 12 43 -5
51 -14 62 -52 62 -17 0 -30 0 -31 0z"/>
<path d="M8207 1042 c-20 -22 -22 -63 -5 -80 17 -17 53 -15 69 5 13 15 12 15
-6 6 -23 -13 -55 0 -55 22 0 10 10 15 29 15 37 0 46 13 25 34 -20 21 -37 20
-57 -2z m41 -10 c2 -7 -6 -12 -17 -12 -21 0 -27 11 -14 24 9 9 26 2 31 -12z"/>
<path d="M8315 1052 c-5 -4 -10 -28 -10 -55 0 -35 4 -47 15 -47 12 0 15 10 12
43 -5 62 -6 67 -17 59z"/>
<path d="M8382 1048 c-15 -15 -16 -45 -2 -53 8 -5 7 -11 -1 -21 -13 -15 -8
-18 49 -28 18 -3 32 -1 32 4 0 6 -10 10 -22 10 -34 0 -43 11 -46 53 -3 33 0
38 15 35 12 -2 18 -12 18 -31 -1 -34 16 -30 26 5 6 21 3 27 -15 32 -31 8 -41
7 -54 -6z"/>
<path d="M8730 1040 c-11 -11 -20 -26 -20 -33 0 -24 31 -57 55 -57 24 0 55 33
55 57 0 18 -37 53 -55 53 -8 0 -24 -9 -35 -20z m61 -16 c14 -37 2 -66 -24 -62
-36 5 -37 88 -2 88 8 0 20 -12 26 -26z"/>
<path d="M8845 1052 c-6 -4 -10 -28 -10 -55 0 -35 4 -47 15 -47 12 0 15 9 12
41 -4 34 -1 41 17 46 11 3 21 9 21 14 0 13 -17 11 -26 -2 -4 -8 -9 -8 -13 -1
-4 6 -11 8 -16 4z"/>
<path d="M8927 1054 c-15 -15 -6 -44 19 -60 14 -9 23 -23 20 -30 -7 -18 -1
-18 14 1 10 12 6 20 -21 44 -35 32 -33 54 3 32 17 -10 19 -10 16 1 -5 15 -40
23 -51 12z"/>
<path d="M9077 1042 c-33 -37 -11 -92 37 -92 31 0 46 19 46 57 0 49 -51 71
-83 35z m59 -16 c8 -35 1 -60 -18 -64 -22 -4 -41 33 -34 64 8 32 44 32 52 0z"/>
<path d="M330 1034 c0 -8 5 -12 10 -9 6 4 8 11 5 16 -9 14 -15 11 -15 -7z"/>
<path d="M9341 1010 c-11 -38 -9 -60 7 -60 4 0 8 23 9 50 2 28 1 50 -1 50 -1
0 -8 -18 -15 -40z"/>
<path d="M9400 1041 c0 -6 5 -13 10 -16 6 -3 10 1 10 9 0 9 -4 16 -10 16 -5 0
-10 -4 -10 -9z"/>
<path d="M1960 1010 c-10 -6 -11 -10 -2 -10 7 0 12 -15 12 -39 0 -22 -5 -42
-12 -44 -7 -3 1 -6 17 -6 17 0 25 3 18 7 -6 4 -13 29 -15 54 -2 39 -6 46 -18
38z"/>
<path d="M1316 988 c-9 -36 10 -43 22 -9 9 25 8 31 -2 31 -8 0 -16 -10 -20
-22z"/>
<path d="M1870 990 c0 -10 -8 -24 -17 -30 -17 -11 -17 -11 0 -6 10 3 22 6 27
6 4 0 10 11 12 25 4 17 1 25 -8 25 -8 0 -14 -9 -14 -20z"/>
<path d="M330 960 c0 -5 5 -10 10 -10 6 0 10 5 10 10 0 6 -4 10 -10 10 -5 0
-10 -4 -10 -10z"/>
<path d="M8920 960 c0 -5 5 -10 11 -10 5 0 7 5 4 10 -3 6 -8 10 -11 10 -2 0
-4 -4 -4 -10z"/>
<path d="M8365 931 c-18 -31 45 -43 81 -16 17 13 16 13 -14 2 -29 -10 -35 -10
-47 6 -8 12 -16 14 -20 8z"/>
<path d="M1145 778 c0 -44 -4 -73 -11 -75 -17 -6 -23 44 -8 72 12 22 11 25 -6
25 -34 0 -55 -71 -28 -98 7 -7 32 -12 58 -12 l45 0 -3 80 c-3 74 -5 80 -25 80
-21 0 -22 -5 -22 -72z"/>
<path d="M1280 835 c0 -8 7 -15 15 -15 8 0 15 7 15 15 0 8 -7 15 -15 15 -8 0
-15 -7 -15 -15z"/>
<path d="M1357 844 c-4 -4 -7 -16 -7 -26 0 -10 -6 -18 -12 -18 -10 0 -9 -3 1
-9 9 -6 12 -23 10 -55 -4 -45 -4 -46 26 -45 16 0 24 3 18 6 -8 3 -13 23 -13
48 0 25 5 45 13 48 10 4 10 6 0 6 -15 1 -18 41 -3 41 6 0 9 -4 8 -9 -2 -5 2
-9 7 -10 6 -1 10 5 10 12 0 13 -46 22 -58 11z"/>
<path d="M139 828 c0 -2 -1 -33 -2 -71 -2 -54 1 -67 13 -67 12 0 14 13 12 70
-2 38 -8 70 -13 70 -5 0 -9 -1 -10 -2z"/>
<path d="M220 811 c-21 -40 -6 -121 22 -121 9 0 9 3 0 12 -16 16 -16 100 0
116 9 9 9 12 0 12 -6 0 -16 -9 -22 -19z"/>
<path d="M268 818 c16 -16 16 -100 0 -116 -7 -7 -8 -12 -2 -12 21 0 34 26 34
70 0 44 -13 70 -34 70 -6 0 -5 -5 2 -12z"/>
<path d="M862 788 c-16 -16 -16 -70 0 -86 17 -17 53 -15 69 5 13 15 12 15 -7
5 -16 -8 -24 -8 -32 0 -21 21 -13 38 18 38 33 0 35 3 20 31 -12 21 -50 25 -68
7z m48 -13 c0 -8 -7 -15 -15 -15 -8 0 -15 7 -15 15 0 8 7 15 15 15 8 0 15 -7
15 -15z"/>
<path d="M955 744 c0 -47 2 -54 20 -54 17 0 20 7 20 42 0 32 4 43 15 43 11 0
15 -11 15 -43 0 -36 3 -42 20 -42 19 0 20 5 15 53 l-5 52 -50 2 -50 1 0 -54z"/>
<path d="M1275 745 c0 -48 2 -55 20 -55 18 0 20 5 17 55 -3 43 -7 55 -20 55
-14 0 -17 -10 -17 -55z"/>
<path d="M330 774 c0 -8 5 -12 10 -9 6 4 8 11 5 16 -9 14 -15 11 -15 -7z"/>
<path d="M330 700 c0 -5 5 -10 10 -10 6 0 10 5 10 10 0 6 -4 10 -10 10 -5 0
-10 -4 -10 -10z"/>
<path d="M1753 604 c-15 -23 -15 -29 -2 -52 8 -14 21 -28 29 -30 12 -4 11 -1
-2 15 -22 24 -23 57 -2 77 8 9 11 16 5 16 -6 0 -18 -12 -28 -26z"/>
<path d="M1841 614 c0 -11 3 -14 6 -6 3 7 2 16 -1 19 -3 4 -6 -2 -5 -13z"/>
<path d="M1888 575 c-2 -33 1 -55 7 -55 6 0 9 20 7 48 l-3 47 25 -50 c26 -50
26 -30 0 32 -20 48 -32 41 -36 -22z"/>
<path d="M1989 628 c0 -2 -1 -27 -2 -56 -2 -40 1 -52 13 -52 12 0 14 11 12 55
-2 30 -8 55 -13 55 -5 0 -9 -1 -10 -2z"/>
<path d="M2055 575 c0 -44 3 -55 16 -55 12 0 15 7 11 25 -4 21 -1 25 21 25 33
0 54 25 37 45 -7 8 -18 15 -24 14 -7 0 -6 -2 2 -6 6 -2 12 -13 12 -24 0 -14
-7 -19 -25 -19 -20 0 -25 5 -25 25 0 14 -6 25 -12 25 -9 0 -13 -18 -13 -55z"/>
<path d="M1679 580 c-9 -14 -33 -51 -53 -83 -30 -47 -40 -57 -56 -52 -21 7
-28 -9 -9 -21 6 -3 23 6 38 20 36 34 78 35 91 1 6 -17 14 -23 26 -18 12 4 13
8 3 14 -8 4 -15 38 -18 86 -6 76 -6 77 -22 53z m1 -60 c0 -36 -2 -40 -26 -40
l-25 0 22 40 c13 22 24 40 26 40 2 0 3 -18 3 -40z"/>
<path d="M2219 579 c-33 -63 -32 -136 3 -180 l19 -24 -15 32 c-20 41 -20 125
-1 163 9 17 13 30 11 30 -3 0 -10 -10 -17 -21z"/>
<path d="M2344 586 c-42 -18 -64 -52 -64 -97 0 -37 10 -51 45 -62 18 -6 17 -5
-2 9 -44 32 -20 122 40 148 18 8 28 15 22 15 -5 0 -24 -6 -41 -13z"/>
<path d="M2486 565 c19 -47 18 -114 -5 -158 -10 -20 -15 -34 -10 -31 39 24 54
137 25 192 -22 43 -29 41 -10 -3z"/>
<path d="M2410 576 c6 -6 10 -19 11 -30 0 -21 0 -21 9 -1 14 32 11 41 -10 41
-13 0 -16 -4 -10 -10z"/>
<path d="M139 568 c0 -2 -1 -33 -2 -71 -2 -54 1 -67 13 -67 12 0 14 13 12 70
-2 38 -8 70 -13 70 -5 0 -9 -1 -10 -2z"/>
<path d="M249 568 c0 -2 -1 -33 -2 -71 -1 -48 2 -67 11 -67 8 0 12 21 12 70 0
40 -4 70 -10 70 -5 0 -10 -1 -11 -2z"/>
<path d="M1070 556 c-23 -23 -12 -119 14 -124 10 -2 23 1 29 7 8 8 6 11 -6 11
-20 0 -24 59 -5 78 8 8 9 12 1 12 -6 0 -13 7 -15 15 -3 14 -5 14 -18 1z"/>
<path d="M855 484 c0 -53 0 -54 30 -54 20 0 26 3 17 9 -8 5 -12 22 -10 42 3
29 6 34 26 31 14 -2 22 2 22 11 0 10 -13 14 -42 14 l-43 1 0 -54z"/>
<path d="M962 528 c-16 -16 -16 -70 0 -86 17 -17 53 -15 69 5 13 15 12 15 -7
5 -16 -8 -24 -8 -32 0 -21 21 -13 38 18 38 33 0 35 3 20 31 -12 21 -50 25 -68
7z m48 -13 c0 -8 -7 -15 -15 -15 -8 0 -15 7 -15 15 0 8 7 15 15 15 8 0 15 -7
15 -15z"/>
<path d="M1134 524 c3 -9 6 -33 6 -54 l0 -39 51 1 c40 0 49 3 45 15 -3 8 -6
32 -6 54 0 30 -4 39 -17 39 -15 0 -18 -9 -18 -47 0 -28 -5 -48 -12 -50 -9 -3
-13 10 -13 46 0 45 -2 51 -21 51 -15 0 -19 -4 -15 -16z"/>
<path d="M1265 484 c0 -51 1 -54 25 -54 24 0 25 3 21 47 -3 40 -1 45 14 39 10
-3 24 -1 32 6 13 11 15 5 12 -40 -4 -47 -2 -52 16 -52 17 0 20 7 20 42 0 32 4
43 15 43 11 0 15 -11 15 -43 0 -36 3 -42 20 -42 19 0 20 5 15 53 l-5 52 -100
1 -100 1 0 -53z"/>
<path d="M330 514 c0 -8 5 -12 10 -9 6 4 8 11 5 16 -9 14 -15 11 -15 -7z"/>
<path d="M2390 470 c0 -10 -8 -24 -17 -30 -17 -11 -17 -11 0 -6 10 3 22 6 27
6 4 0 10 11 12 25 4 17 1 25 -8 25 -8 0 -14 -9 -14 -20z"/>
<path d="M330 440 c0 -5 5 -10 10 -10 6 0 10 5 10 10 0 6 -4 10 -10 10 -5 0
-10 -4 -10 -10z"/>
<path d="M788 333 c6 -2 12 -15 12 -28 0 -18 -4 -22 -20 -18 -29 8 -50 -14
-50 -52 0 -41 14 -53 68 -53 35 -1 43 2 38 14 -3 9 -6 45 -6 80 0 63 0 64 -27
63 -16 0 -22 -3 -15 -6z m7 -99 c0 -28 -4 -39 -15 -39 -17 0 -24 27 -16 62 10
37 31 22 31 -23z"/>
<path d="M937 334 c-4 -4 -7 -16 -7 -26 0 -10 -6 -18 -12 -18 -10 0 -9 -3 1
-9 9 -6 12 -23 10 -55 -4 -45 -4 -46 26 -45 16 0 24 3 18 6 -8 3 -13 23 -13
48 0 25 5 45 13 48 10 4 10 6 0 6 -15 1 -18 41 -3 41 6 0 9 -4 8 -9 -2 -5 2
-9 7 -10 6 -1 10 5 10 12 0 13 -46 22 -58 11z"/>
<path d="M1450 325 c0 -8 7 -15 15 -15 8 0 15 7 15 15 0 8 -7 15 -15 15 -8 0
-15 -7 -15 -15z"/>
<path d="M139 318 c0 -2 -1 -33 -2 -71 -2 -54 1 -67 13 -67 12 0 14 13 12 70
-2 38 -8 70 -13 70 -5 0 -9 -1 -10 -2z"/>
<path d="M222 308 c-6 -6 -12 -16 -12 -21 0 -5 7 -2 15 7 9 8 22 13 30 10 25
-10 17 -51 -16 -89 l-31 -35 46 0 c25 0 46 5 46 10 0 6 -14 10 -31 10 l-31 0
27 31 c34 41 31 83 -5 87 -14 2 -31 -3 -38 -10z"/>
<path d="M1380 306 c-23 -23 -12 -119 14 -124 10 -2 23 1 29 7 8 8 6 11 -6 11
-20 0 -24 59 -5 78 8 8 9 12 1 12 -6 0 -13 7 -15 15 -3 14 -5 14 -18 1z"/>
<path d="M504 264 c-24 -36 -9 -78 30 -82 16 -2 34 2 40 9 8 9 7 11 -5 6 -18
-6 -39 10 -39 30 0 8 12 13 30 13 24 0 28 3 23 18 -15 39 -55 43 -79 6z m54
-2 c2 -7 -3 -12 -12 -12 -9 0 -16 7 -16 16 0 17 22 14 28 -4z"/>
<path d="M605 234 c0 -47 2 -54 20 -54 18 0 20 5 17 45 -3 37 -1 45 13 45 14
0 16 -8 13 -45 -3 -41 -1 -45 19 -45 20 0 23 5 23 44 0 52 -12 64 -65 64 l-40
1 0 -55z"/>
<path d="M1004 274 c3 -9 6 -33 6 -54 l0 -39 51 1 c40 0 49 3 45 15 -3 8 -6
32 -6 54 0 30 -4 39 -17 39 -15 0 -18 -9 -18 -47 0 -28 -5 -48 -12 -50 -9 -3
-13 10 -13 46 0 45 -2 51 -21 51 -15 0 -19 -4 -15 -16z"/>
<path d="M1135 234 c0 -47 2 -54 20 -54 18 0 20 5 17 45 -3 37 -1 45 13 45 14
0 16 -8 13 -45 -3 -41 -1 -45 19 -45 20 0 23 5 23 44 0 52 -12 64 -65 64 l-40
1 0 -55z"/>
<path d="M1278 279 c-21 -12 -24 -69 -6 -87 15 -15 48 -15 68 -1 12 8 11 9 -6
4 -27 -7 -46 16 -42 51 3 30 28 46 28 19 0 -9 6 -15 13 -12 6 2 12 10 12 18 0
17 -44 23 -67 8z"/>
<path d="M1445 235 c0 -48 2 -55 20 -55 18 0 20 5 17 55 -3 43 -7 55 -20 55
-14 0 -17 -10 -17 -55z"/>
<path d="M1528 279 c-21 -12 -24 -69 -6 -87 15 -15 61 -15 76 0 17 17 15 64
-4 82 -18 18 -41 20 -66 5z m48 -23 c8 -34 1 -61 -16 -61 -16 0 -26 45 -16 71
8 22 25 17 32 -10z"/>
<path d="M1625 235 c0 -52 1 -55 25 -55 24 0 25 3 22 45 -3 37 -1 45 13 45 14
0 16 -8 13 -45 -3 -40 -1 -45 17 -45 19 0 20 5 15 53 l-5 52 -50 2 -50 3 0
-55z"/>
<path d="M330 264 c0 -8 5 -12 10 -9 6 4 8 11 5 16 -9 14 -15 11 -15 -7z"/>
<path d="M330 190 c0 -5 5 -10 10 -10 6 0 10 5 10 10 0 6 -4 10 -10 10 -5 0
-10 -4 -10 -10z"/>
<path d="M2422 73 c1286 -2 3390 -2 4675 0 1286 1 234 2 -2337 2 -2571 0
-3623 -1 -2338 -2z"/>
</g>
</svg>
