<svg xmlns="http://www.w3.org/2000/svg" xmlns:xlink="http://www.w3.org/1999/xlink" version="1.1" width="460.8pt" height="345.6pt" viewBox="0 0 460.8 345.6">
<defs>
<clipPath id="clip_0">
<path transform="matrix(1,0,0,-1,0,345.6)" d="M57.6 38.016H414.72V304.128H57.6Z"/>
</clipPath>
<clipPath id="clip_1">
<path transform="matrix(1,0,0,-1,0,345.6)" d="M57.6 38.016H414.72V304.128H57.6Z"/>
</clipPath>
<clipPath id="clip_2">
<path transform="matrix(1,0,0,-1,0,345.6)" d="M57.6 38.016H414.72V304.128H57.6Z"/>
</clipPath>
<clipPath id="clip_3">
<path transform="matrix(1,0,0,-1,0,345.6)" d="M57.6 38.016H414.72V304.128H57.6Z"/>
</clipPath>
<clipPath id="clip_4">
<path transform="matrix(1,0,0,-1,0,345.6)" d="M57.6 38.016H414.72V304.128H57.6Z"/>
</clipPath>
<clipPath id="clip_5">
<path transform="matrix(1,0,0,-1,0,345.6)" d="M57.6 38.016H414.72V304.128H57.6Z"/>
</clipPath>
<clipPath id="clip_6">
<path transform="matrix(1,0,0,-1,0,345.6)" d="M57.6 38.016H414.72V304.128H57.6Z"/>
</clipPath>
<clipPath id="clip_7">
<path transform="matrix(1,0,0,-1,0,345.6)" d="M57.6 38.016H414.72V304.128H57.6Z"/>
</clipPath>
<clipPath id="clip_8">
<path transform="matrix(1,0,0,-1,0,345.6)" d="M57.6 38.016H414.72V304.128H57.6Z"/>
</clipPath>
<clipPath id="clip_9">
<path transform="matrix(1,0,0,-1,0,345.6)" d="M57.6 38.016H414.72V304.128H57.6Z"/>
</clipPath>
<clipPath id="clip_10">
<path transform="matrix(1,0,0,-1,0,345.6)" d="M57.6 38.016H414.72V304.128H57.6Z"/>
</clipPath>
<clipPath id="clip_11">
<path transform="matrix(1,0,0,-1,0,345.6)" d="M57.6 38.016H414.72V304.128H57.6Z"/>
</clipPath>
<clipPath id="clip_12">
<path transform="matrix(1,0,0,-1,0,345.6)" d="M57.6 38.016H414.72V304.128H57.6Z"/>
</clipPath>
<clipPath id="clip_13">
<path transform="matrix(1,0,0,-1,0,345.6)" d="M57.6 38.016H414.72V304.128H57.6Z"/>
</clipPath>
<clipPath id="clip_14">
<path transform="matrix(1,0,0,-1,0,345.6)" d="M57.6 38.016H414.72V304.128H57.6Z"/>
</clipPath>
<clipPath id="clip_15">
<path transform="matrix(1,0,0,-1,0,345.6)" d="M57.6 38.016H414.72V304.128H57.6Z"/>
</clipPath>
<clipPath id="clip_16">
<path transform="matrix(1,0,0,-1,0,345.6)" d="M57.6 38.016H414.72V304.128H57.6Z"/>
</clipPath>
</defs>
<path transform="matrix(1,0,0,-1,0,345.6)" d="M0 0H460.8V345.6H0Z" fill="#ffffff"/>
<path transform="matrix(1,0,0,-1,0,345.6)" d="M57.6 38.016H414.72V304.128H57.6Z" fill="#ffffff"/>
<g clip-path="url(#clip_0)">
<path transform="matrix(1,0,0,-1,0,345.6)" stroke-width=".8" stroke-linecap="square" stroke-linejoin="round" fill="none" stroke="#bebebe" d="M73.832729 38.016V304.128"/>
</g>
<path transform="matrix(1,0,0,-1,0,345.6)" d="M73.832729 38.016V34.516"/>
<path transform="matrix(1,0,0,-1,0,345.6)" stroke-width=".8" stroke-linecap="butt" stroke-linejoin="round" fill="none" stroke="#000000" d="M73.832729 38.016V34.516"/>
<text xml:space="preserve" transform="matrix(1 0 -0 1 70.65304 322.17778)" font-size="10" font-family="DejaVuSans"><tspan y="0" x="0">0</tspan></text>
<g clip-path="url(#clip_1)">
<path transform="matrix(1,0,0,-1,0,345.6)" stroke-width=".8" stroke-linecap="square" stroke-linejoin="round" fill="none" stroke="#bebebe" d="M142.90816 38.016V304.128"/>
</g>
<path transform="matrix(1,0,0,-1,0,345.6)" d="M142.90816 38.016V34.516"/>
<path transform="matrix(1,0,0,-1,0,345.6)" stroke-width=".8" stroke-linecap="butt" stroke-linejoin="round" fill="none" stroke="#000000" d="M142.90816 38.016V34.516"/>
<text xml:space="preserve" transform="matrix(1 0 -0 1 136.54878 322.17778)" font-size="10" font-family="DejaVuSans"><tspan y="0" x="0 6.3600008">10</tspan></text>
<g clip-path="url(#clip_2)">
<path transform="matrix(1,0,0,-1,0,345.6)" stroke-width=".8" stroke-linecap="square" stroke-linejoin="round" fill="none" stroke="#bebebe" d="M211.9836 38.016V304.128"/>
</g>
<path transform="matrix(1,0,0,-1,0,345.6)" d="M211.9836 38.016V34.516"/>
<path transform="matrix(1,0,0,-1,0,345.6)" stroke-width=".8" stroke-linecap="butt" stroke-linejoin="round" fill="none" stroke="#000000" d="M211.9836 38.016V34.516"/>
<text xml:space="preserve" transform="matrix(1 0 -0 1 205.62422 322.17778)" font-size="10" font-family="DejaVuSans"><tspan y="0" x="0 6.3600008">20</tspan></text>
<g clip-path="url(#clip_3)">
<path transform="matrix(1,0,0,-1,0,345.6)" stroke-width=".8" stroke-linecap="square" stroke-linejoin="round" fill="none" stroke="#bebebe" d="M281.05903 38.016V304.128"/>
</g>
<path transform="matrix(1,0,0,-1,0,345.6)" d="M281.05903 38.016V34.516"/>
<path transform="matrix(1,0,0,-1,0,345.6)" stroke-width=".8" stroke-linecap="butt" stroke-linejoin="round" fill="none" stroke="#000000" d="M281.05903 38.016V34.516"/>
<text xml:space="preserve" transform="matrix(1 0 -0 1 274.69966 322.17778)" font-size="10" font-family="DejaVuSans"><tspan y="0" x="0 6.3600008">30</tspan></text>
<g clip-path="url(#clip_4)">
<path transform="matrix(1,0,0,-1,0,345.6)" stroke-width=".8" stroke-linecap="square" stroke-linejoin="round" fill="none" stroke="#bebebe" d="M350.13447 38.016V304.128"/>
</g>
<path transform="matrix(1,0,0,-1,0,345.6)" d="M350.13447 38.016V34.516"/>
<path transform="matrix(1,0,0,-1,0,345.6)" stroke-width=".8" stroke-linecap="butt" stroke-linejoin="round" fill="none" stroke="#000000" d="M350.13447 38.016V34.516"/>
<text xml:space="preserve" transform="matrix(1 0 -0 1 343.7751 322.17778)" font-size="10" font-family="DejaVuSans"><tspan y="0" x="0 6.3600008">40</tspan></text>
<text xml:space="preserve" transform="matrix(1 0 -0 1 215.02719 335.84965)" font-size="10" font-family="DejaVuSans"><tspan y="0" x="0 2.7800003 6.7000005 12.85 16.960001 23.09 27.01 29.79 35.91">iteration</tspan></text>
<g clip-path="url(#clip_5)">
<path transform="matrix(1,0,0,-1,0,345.6)" stroke-width=".8" stroke-linecap="square" stroke-linejoin="round" fill="none" stroke="#bebebe" d="M57.6 47.080888H414.72"/>
</g>
<path transform="matrix(1,0,0,-1,0,345.6)" d="M57.6 47.080888H54.1"/>
<path transform="matrix(1,0,0,-1,0,345.6)" stroke-width=".8" stroke-linecap="butt" stroke-linejoin="round" fill="none" stroke="#000000" d="M57.6 47.080888H54.1"/>
<text xml:space="preserve" transform="matrix(1 0 -0 1 21.975 302.31599)" font-size="10" font-family="DejaVuSans"><tspan y="0" x="0 6.3600008 9.540001 15.900002 22.260003">0.775</tspan></text>
<g clip-path="url(#clip_6)">
<path transform="matrix(1,0,0,-1,0,345.6)" stroke-width=".8" stroke-linecap="square" stroke-linejoin="round" fill="none" stroke="#bebebe" d="M57.6 77.1068H414.72"/>
</g>
<path transform="matrix(1,0,0,-1,0,345.6)" d="M57.6 77.1068H54.1"/>
<path transform="matrix(1,0,0,-1,0,345.6)" stroke-width=".8" stroke-linecap="butt" stroke-linejoin="round" fill="none" stroke="#000000" d="M57.6 77.1068H54.1"/>
<text xml:space="preserve" transform="matrix(1 0 -0 1 21.975 272.2901)" font-size="10" font-family="DejaVuSans"><tspan y="0" x="0 6.3600008 9.540001 15.900002 22.260003">0.800</tspan></text>
<g clip-path="url(#clip_7)">
<path transform="matrix(1,0,0,-1,0,345.6)" stroke-width=".8" stroke-linecap="square" stroke-linejoin="round" fill="none" stroke="#bebebe" d="M57.6 107.132709H414.72"/>
</g>
<path transform="matrix(1,0,0,-1,0,345.6)" d="M57.6 107.132709H54.1"/>
<path transform="matrix(1,0,0,-1,0,345.6)" stroke-width=".8" stroke-linecap="butt" stroke-linejoin="round" fill="none" stroke="#000000" d="M57.6 107.132709H54.1"/>
<text xml:space="preserve" transform="matrix(1 0 -0 1 21.975 242.26418)" font-size="10" font-family="DejaVuSans"><tspan y="0" x="0 6.3600008 9.540001 15.900002 22.260003">0.825</tspan></text>
<g clip-path="url(#clip_8)">
<path transform="matrix(1,0,0,-1,0,345.6)" stroke-width=".8" stroke-linecap="square" stroke-linejoin="round" fill="none" stroke="#bebebe" d="M57.6 137.15862H414.72"/>
</g>
<path transform="matrix(1,0,0,-1,0,345.6)" d="M57.6 137.15862H54.1"/>
<path transform="matrix(1,0,0,-1,0,345.6)" stroke-width=".8" stroke-linecap="butt" stroke-linejoin="round" fill="none" stroke="#000000" d="M57.6 137.15862H54.1"/>
<text xml:space="preserve" transform="matrix(1 0 -0 1 21.975 212.23827)" font-size="10" font-family="DejaVuSans"><tspan y="0" x="0 6.3600008 9.540001 15.900002 22.260003">0.850</tspan></text>
<g clip-path="url(#clip_9)">
<path transform="matrix(1,0,0,-1,0,345.6)" stroke-width=".8" stroke-linecap="square" stroke-linejoin="round" fill="none" stroke="#bebebe" d="M57.6 167.18453H414.72"/>
</g>
<path transform="matrix(1,0,0,-1,0,345.6)" d="M57.6 167.18453H54.1"/>
<path transform="matrix(1,0,0,-1,0,345.6)" stroke-width=".8" stroke-linecap="butt" stroke-linejoin="round" fill="none" stroke="#000000" d="M57.6 167.18453H54.1"/>
<text xml:space="preserve" transform="matrix(1 0 -0 1 21.975 182.21236)" font-size="10" font-family="DejaVuSans"><tspan y="0" x="0 6.3600008 9.540001 15.900002 22.260003">0.875</tspan></text>
<g clip-path="url(#clip_10)">
<path transform="matrix(1,0,0,-1,0,345.6)" stroke-width=".8" stroke-linecap="square" stroke-linejoin="round" fill="none" stroke="#bebebe" d="M57.6 197.21044H414.72"/>
</g>
<path transform="matrix(1,0,0,-1,0,345.6)" d="M57.6 197.21044H54.1"/>
<path transform="matrix(1,0,0,-1,0,345.6)" stroke-width=".8" stroke-linecap="butt" stroke-linejoin="round" fill="none" stroke="#000000" d="M57.6 197.21044H54.1"/>
<text xml:space="preserve" transform="matrix(1 0 -0 1 21.975 152.18645)" font-size="10" font-family="DejaVuSans"><tspan y="0" x="0 6.3600008 9.540001 15.900002 22.260003">0.900</tspan></text>
<g clip-path="url(#clip_11)">
<path transform="matrix(1,0,0,-1,0,345.6)" stroke-width=".8" stroke-linecap="square" stroke-linejoin="round" fill="none" stroke="#bebebe" d="M57.6 227.23635H414.72"/>
</g>
<path transform="matrix(1,0,0,-1,0,345.6)" d="M57.6 227.23635H54.1"/>
<path transform="matrix(1,0,0,-1,0,345.6)" stroke-width=".8" stroke-linecap="butt" stroke-linejoin="round" fill="none" stroke="#000000" d="M57.6 227.23635H54.1"/>
<text xml:space="preserve" transform="matrix(1 0 -0 1 21.975 122.16054)" font-size="10" font-family="DejaVuSans"><tspan y="0" x="0 6.3600008 9.540001 15.900002 22.260003">0.925</tspan></text>
<g clip-path="url(#clip_12)">
<path transform="matrix(1,0,0,-1,0,345.6)" stroke-width=".8" stroke-linecap="square" stroke-linejoin="round" fill="none" stroke="#bebebe" d="M57.6 257.26228H414.72"/>
</g>
<path transform="matrix(1,0,0,-1,0,345.6)" d="M57.6 257.26228H54.1"/>
<path transform="matrix(1,0,0,-1,0,345.6)" stroke-width=".8" stroke-linecap="butt" stroke-linejoin="round" fill="none" stroke="#000000" d="M57.6 257.26228H54.1"/>
<text xml:space="preserve" transform="matrix(1 0 -0 1 21.975 92.13463)" font-size="10" font-family="DejaVuSans"><tspan y="0" x="0 6.3600008 9.540001 15.900002 22.260003">0.950</tspan></text>
<g clip-path="url(#clip_13)">
<path transform="matrix(1,0,0,-1,0,345.6)" stroke-width=".8" stroke-linecap="square" stroke-linejoin="round" fill="none" stroke="#bebebe" d="M57.6 287.28819H414.72"/>
</g>
<path transform="matrix(1,0,0,-1,0,345.6)" d="M57.6 287.28819H54.1"/>
<path transform="matrix(1,0,0,-1,0,345.6)" stroke-width=".8" stroke-linecap="butt" stroke-linejoin="round" fill="none" stroke="#000000" d="M57.6 287.28819H54.1"/>
<text xml:space="preserve" transform="matrix(1 0 -0 1 21.975 62.108705)" font-size="10" font-family="DejaVuSans"><tspan y="0" x="0 6.3600008 9.540001 15.900002 22.260003">0.975</tspan></text>
<text xml:space="preserve" transform="matrix(0 -1 1 0 15.896875 204.04363)" font-size="10" font-family="DejaVuSans"><tspan y="0" x="0 5.5 11.620001 17.960001 23.170002 25.950003 31.160004 35.08 41.230005 47.570005 53.070005">consistency</tspan></text>
<g clip-path="url(#clip_14)">
<path transform="matrix(1,0,0,-1,0,345.6)" stroke-width="1.5" stroke-linecap="square" stroke-linejoin="round" fill="none" stroke="#0000ff" d="M73.832729 172.47522 80.74027 214.29367 87.64781 212.60433 94.55536 215.78066 101.4629 225.73159 108.370449 218.11693 115.277988 212.76729 122.18553 218.11693 129.09308 231.4364 136.00063 287.6054 142.90816 278.21784 149.8157 288.0382 156.72325 257.53575 163.6308 250.00556 170.53833 261.18037 177.44588 257.53575 184.35343 218.99974 191.26097 243.37995 198.16852 243.46146 205.07605 254.57836 211.9836 262.24217 218.89115 262.92115 225.79869 262.24217 232.70623 260.92713 239.61377 261.85307 246.52132 253.60794 253.42887 256.86564 260.3364 253.60794 267.24397 258.25028 274.1515 258.4416 281.05903 263.02333 287.96659 262.92967 294.8741 250.41797 301.78169 264.88343 308.6892 278.21455 315.59675 275.63038 322.5043 287.88426 329.41184 282.21885 336.31938 280.44474 343.22694 290.54417 350.13447 266.1894 357.04203 290.76756 363.94956 280.48704 370.8571 281.82279 377.76466 284.96803 384.67219 280.61183 391.57975 271.41804 398.48728 280.61183"/>
</g>
<g clip-path="url(#clip_15)">
<path transform="matrix(1,0,0,-1,0,345.6)" stroke-width="1.5" stroke-linecap="square" stroke-linejoin="round" fill="none" stroke="#ff0000" d="M73.832729 50.112 80.74027 153.16013 87.64781 152.22298 94.55536 159.07276 101.4629 224.91312 108.370449 229.52494 115.277988 219.20148 122.18553 229.52494 129.09308 249.30777 136.00063 268.16203 142.90816 271.06449 149.8157 277.80244 156.72325 273.34709 163.6308 264.00285 170.53833 282.3003 177.44588 273.34709 184.35343 256.36677 191.26097 261.94776 198.16852 262.96229 205.07605 260.5929 211.9836 252.0258 218.89115 247.58992 225.79869 252.0258 232.70623 261.36747 239.61377 259.2283 246.52132 261.58128 253.42887 253.49137 260.3364 261.58128 267.24397 272.475 274.1515 275.2932 281.05903 272.5966 287.96659 261.39103 294.8741 282.0824 301.78169 267.61375 308.6892 279.9669 315.59675 277.52308 322.5043 282.6465 329.41184 277.1336 336.31938 276.23738 343.22694 275.26148 350.13447 275.6485 357.04203 274.29457 363.94956 274.12773 370.8571 268.37684 377.76466 289.98399 384.67219 280.94038 391.57975 292.032 398.48728 280.94038"/>
</g>
<g clip-path="url(#clip_16)">
<path transform="matrix(1,0,0,-1,0,345.6)" stroke-width="1.5" stroke-linecap="square" stroke-linejoin="round" fill="none" stroke="#008000" d="M73.832729 68.75775 80.74027 69.03272 87.64781 77.17135 94.55536 105.12332 101.4629 108.127498 108.370449 110.437389 115.277988 93.003429 122.18553 86.46778 129.09308 83.207408 136.00063 104.01735 142.90816 98.50111 149.8157 106.020008 156.72325 134.94577 163.6308 136.69908 170.53833 127.70662 177.44588 127.53578 184.35343 120.05582 191.26097 138.3475 198.16852 141.77681 205.07605 131.48398 211.9836 152.01927 218.89115 108.42158 225.79869 114.955959 232.70623 110.19101 239.61377 104.872898 246.52132 116.77699 253.42887 109.19099 260.3364 115.775249 267.24397 103.92775 274.1515 126.32295 281.05903 140.7671 287.96659 138.68727 294.8741 150.77439 301.78169 138.04183 308.6892 145.58022 315.59675 129.34876 322.5043 118.793567 329.41184 107.73647 336.31938 107.28341 343.22694 119.76744 350.13447 126.50853 357.04203 126.76797 363.94956 134.68225 370.8571 128.1491 377.76466 125.37994 384.67219 175.59178 391.57975 172.38494 398.48728 182.78212"/>
</g>
<path transform="matrix(1,0,0,-1,0,345.6)" stroke-width=".8" stroke-linecap="square" stroke-miterlimit="10" stroke-linejoin="miter" fill="none" stroke="#000000" d="M57.6 38.016V304.128"/>
<path transform="matrix(1,0,0,-1,0,345.6)" stroke-width=".8" stroke-linecap="square" stroke-miterlimit="10" stroke-linejoin="miter" fill="none" stroke="#000000" d="M414.72 38.016V304.128"/>
<path transform="matrix(1,0,0,-1,0,345.6)" stroke-width=".8" stroke-linecap="square" stroke-miterlimit="10" stroke-linejoin="miter" fill="none" stroke="#000000" d="M57.6 38.016H414.72"/>
<path transform="matrix(1,0,0,-1,0,345.6)" stroke-width=".8" stroke-linecap="square" stroke-miterlimit="10" stroke-linejoin="miter" fill="none" stroke="#000000" d="M57.6 304.128H414.72"/>
<text xml:space="preserve" transform="matrix(1 0 -0 1 68.511569 35.472017)" font-size="12" font-family="DejaVuSans"><tspan y="0" x="0 8.808001 17.052002 25.596003 32.736005 36.852006 43.992006 49.728006 57.864007 66.408008 73.524 81.348 85.524 93.768009 98.98801 103.16401 108.90001 117.44401 125.58001 129.75601 136.87201 145.11602 157.62001 166.212 174.31201 180.22801 188.32802 194.06403 202.30803 208.22403 212.40003 217.62003 225.86403 231.78003 235.95603 241.69202 250.23603 256.15205 264.28804 272.424 276.6 285.19203 293.29203 299.028 307.12803 314.26805 322.40403 328.14">Consistency of the comparator for three datasets</tspan></text>
<g>
<path transform="matrix(1,0,0,-1,0,345.6)" d="M331.2825 43.016H407.72C409.05335 43.016 409.72 43.682668 409.72 45.016V88.031627C409.72 89.36496 409.05335 90.031627 407.72 90.031627H331.2825C329.94917 90.031627 329.2825 89.36496 329.2825 88.031627V45.016C329.2825 43.682668 329.94917 43.016 331.2825 43.016Z" fill="#ffffff" fill-opacity=".8"/>
<path transform="matrix(1,0,0,-1,0,345.6)" stroke-width="1" stroke-linecap="butt" stroke-miterlimit="10" stroke-linejoin="miter" fill="none" stroke="#d5d6d5" stroke-opacity=".8" d="M331.2825 43.016H407.72C409.05335 43.016 409.72 43.682668 409.72 45.016V88.031627C409.72 89.36496 409.05335 90.031627 407.72 90.031627H331.2825C329.94917 90.031627 329.2825 89.36496 329.2825 88.031627V45.016C329.2825 43.682668 329.94917 43.016 331.2825 43.016Z"/>
</g>
<path transform="matrix(1,0,0,-1,0,345.6)" stroke-width="1.5" stroke-linecap="square" stroke-linejoin="round" fill="none" stroke="#0000ff" d="M333.2825 81.937877H343.2825 353.2825"/>
<text xml:space="preserve" transform="matrix(1 0 -0 1 361.2825 267.16215)" font-size="10" font-family="DejaVuSans"><tspan y="0" x="0 6.98 14.85 20.420002 25.990002 32.83">COLLAB</tspan></text>
<path transform="matrix(1,0,0,-1,0,345.6)" stroke-width="1.5" stroke-linecap="square" stroke-linejoin="round" fill="none" stroke="#ff0000" d="M333.2825 67.266H343.2825 353.2825"/>
<text xml:space="preserve" transform="matrix(1 0 -0 1 361.2825 281.834)" font-size="10" font-family="DejaVuSans"><tspan y="0" x="0 6.11 16 18.95 25.060002 31.170002 37.49">TWITTER</tspan></text>
<path transform="matrix(1,0,0,-1,0,345.6)" stroke-width="1.5" stroke-linecap="square" stroke-linejoin="round" fill="none" stroke="#008000" d="M333.2825 52.594125H343.2825 353.2825"/>
<text xml:space="preserve" transform="matrix(1 0 -0 1 361.2825 296.5059)" font-size="10" font-family="DejaVuSans"><tspan y="0" x="0 6.950001">RB</tspan></text>
</svg>
